<?xml version="1.0" encoding="UTF-8"?>
<svg width="476px" height="405px" viewBox="0 0 476 405" version="1.1" xmlns="http://www.w3.org/2000/svg" xmlns:xlink="http://www.w3.org/1999/xlink">
    <!-- Generator: Sketch 52.5 (67469) - http://www.bohemiancoding.com/sketch -->
    <title>Asset 26</title>
    <desc>Created with Sketch.</desc>
    <defs>
        <linearGradient x1="49.9951494%" y1="0%" x2="49.9951494%" y2="99.9973885%" id="linearGradient-1">
            <stop stop-color="#002649" offset="0%"></stop>
            <stop stop-color="#002343" offset="38%"></stop>
            <stop stop-color="#001C32" offset="88%"></stop>
            <stop stop-color="#001A2D" offset="100%"></stop>
        </linearGradient>
        <linearGradient x1="50%" y1="100%" x2="50%" y2="0%" id="linearGradient-2">
            <stop stop-color="#002649" offset="0%"></stop>
            <stop stop-color="#042A4F" offset="32%"></stop>
            <stop stop-color="#0F3460" offset="75%"></stop>
            <stop stop-color="#183D6D" offset="100%"></stop>
        </linearGradient>
        <linearGradient x1="-0.00590112963%" y1="49.9924963%" x2="99.9978577%" y2="49.9924963%" id="linearGradient-3">
            <stop stop-color="#183D6D" offset="0%"></stop>
            <stop stop-color="#1C4373" offset="19%"></stop>
            <stop stop-color="#265483" offset="45%"></stop>
            <stop stop-color="#376F9F" offset="75%"></stop>
            <stop stop-color="#498DBC" offset="100%"></stop>
        </linearGradient>
        <linearGradient x1="50.01057%" y1="237.622752%" x2="50.01057%" y2="-4.45096289%" id="linearGradient-4">
            <stop stop-color="#FF2A64" offset="0%"></stop>
            <stop stop-color="#FFAF48" offset="100%"></stop>
        </linearGradient>
        <linearGradient x1="7551.77948%" y1="226.14395%" x2="7551.77948%" y2="-4.23595096%" id="linearGradient-5">
            <stop stop-color="#FF2A64" offset="0%"></stop>
            <stop stop-color="#FFAF48" offset="100%"></stop>
        </linearGradient>
        <linearGradient x1="1221.1751%" y1="202.212977%" x2="1221.1751%" y2="38.7601163%" id="linearGradient-6">
            <stop stop-color="#FF2A64" offset="0%"></stop>
            <stop stop-color="#FFAF48" offset="100%"></stop>
        </linearGradient>
        <linearGradient x1="113.459643%" y1="98.6245645%" x2="21.9471092%" y2="-10.5338935%" id="linearGradient-7">
            <stop stop-color="#183D6D" offset="0%"></stop>
            <stop stop-color="#1C4373" offset="19%"></stop>
            <stop stop-color="#265483" offset="45%"></stop>
            <stop stop-color="#376F9F" offset="75%"></stop>
            <stop stop-color="#498DBC" offset="100%"></stop>
        </linearGradient>
        <linearGradient x1="-34.0710078%" y1="49.9725124%" x2="65.9289922%" y2="49.9725124%" id="linearGradient-8">
            <stop stop-color="#FF2A64" offset="0%"></stop>
            <stop stop-color="#FFAF48" offset="100%"></stop>
        </linearGradient>
        <linearGradient x1="0%" y1="50%" x2="100%" y2="50%" id="linearGradient-9">
            <stop stop-color="#183D6D" offset="0%"></stop>
            <stop stop-color="#1C4373" offset="19%"></stop>
            <stop stop-color="#265483" offset="45%"></stop>
            <stop stop-color="#376F9F" offset="75%"></stop>
            <stop stop-color="#498DBC" offset="100%"></stop>
        </linearGradient>
        <linearGradient x1="100.055826%" y1="-9.49175739%" x2="-10.6349067%" y2="122.080859%" id="linearGradient-10">
            <stop stop-color="#183D6D" offset="0%"></stop>
            <stop stop-color="#1C4373" offset="19%"></stop>
            <stop stop-color="#265483" offset="45%"></stop>
            <stop stop-color="#376F9F" offset="75%"></stop>
            <stop stop-color="#498DBC" offset="100%"></stop>
        </linearGradient>
        <linearGradient x1="8.23406003%" y1="-8.643551%" x2="122.527192%" y2="141.66304%" id="linearGradient-11">
            <stop stop-color="#FFFFFF" offset="0%"></stop>
            <stop stop-color="#FFE4CC" offset="100%"></stop>
        </linearGradient>
        <linearGradient x1="82.4059347%" y1="0.583250389%" x2="-6.09635741%" y2="125.236%" id="linearGradient-12">
            <stop stop-color="#FFFFFF" offset="0%"></stop>
            <stop stop-color="#FFE4CC" offset="100%"></stop>
        </linearGradient>
        <linearGradient x1="50%" y1="0.561523438%" x2="50%" y2="132.202148%" id="linearGradient-13">
            <stop stop-color="#FFFFFF" offset="0%"></stop>
            <stop stop-color="#FFE4CC" offset="100%"></stop>
        </linearGradient>
    </defs>
    <g id="Page-1" stroke="none" stroke-width="1" fill="none" fill-rule="evenodd">
        <g id="Sign-In" transform="translate(-262.000000, -369.000000)">
            <g id="Group-2" transform="translate(261.000000, 178.000000)">
                <g id="Asset-26" transform="translate(0.000000, 191.000000)">
                    <rect id="Rectangle" fill="url(#linearGradient-1)" x="154.70674" y="0.711627907" width="215.633435" height="400.730233" rx="12.40415"></rect>
                    <rect id="Rectangle" fill="url(#linearGradient-2)" x="138.776893" y="0" width="215.633435" height="400.730233" rx="12.40415"></rect>
                    <ellipse id="Oval" fill="#498DBC" opacity="0.3" cx="249.417681" cy="100.402326" rx="39.2336543" ry="39.2546512"></ellipse>
                    <ellipse id="Oval" fill="#498DBC" opacity="0.3" cx="249.417681" cy="100.402326" rx="31.2112035" ry="31.227907"></ellipse>
                    <path d="M332.330284,226.444186 L329.192429,207.156977 C332.910604,202.659575 332.52688,196.05278 328.31307,192.016563 C324.09926,187.980346 317.485551,187.884617 313.156812,191.797187 C308.828072,195.709756 308.253495,202.302681 311.840088,206.905814 L311.735492,206.905814 L308.597637,226.444186 C308.468254,227.337166 308.729131,228.242675 309.313724,228.929739 C309.898317,229.616803 310.750104,230.018993 311.651816,230.033721 L329.276105,230.033721 C330.177817,230.018993 331.029604,229.616803 331.614197,228.929739 C332.19879,228.242675 332.459667,227.337166 332.330284,226.444186 Z" id="Path" fill="#498DBC" opacity="0.3"></path>
                    <path d="M411.927221,365.776744 L474.255492,355.583721 C474.255492,355.583721 455.501575,349.398837 432.208228,356.536047 C408.91488,363.673256 411.927221,365.776744 411.927221,365.776744 Z" id="Path" fill="#FD8D32"></path>
                    <path d="M424.572779,315.774419 C424.572779,315.774419 452.238206,303.216279 477.006346,306.40814 C477.006346,306.40814 449.623326,320.337209 422.219387,321.34186 L424.572779,315.774419 Z" id="Path" fill="#FD8D32"></path>
                    <path d="M353.981488,321.404651 C353.981488,321.404651 344.567921,308.783721 346.210066,288.690698 C346.210066,288.690698 356.784639,301.05 358.552298,323.110465 L353.981488,321.404651 Z" id="Path" fill="#FD8D32"></path>
                    <path d="M387.535624,306.816279 L432.396499,228.463953 C432.396499,228.463953 404.061663,257.410465 393.821794,282.673256 C383.581926,307.936047 387.535624,306.816279 387.535624,306.816279 Z" id="Path" fill="#FD8D32"></path>
                    <path d="M385.820263,303.488372 C385.820263,303.488372 416.006433,258.802326 389.815799,243.837209 C363.625164,228.872093 355.152954,311.661628 355.152954,311.661628 C355.152954,311.661628 354.358031,338.106977 353.312079,339.205814 C352.266127,340.304651 361.899344,345.348837 361.899344,345.348837 L384.481444,330.25814 L385.820263,303.488372 Z" id="Path" fill="#002649"></path>
                    <path d="M358.050241,322.126744 C358.050241,322.126744 378.969278,284.337209 381.939781,260.560465 C381.939781,260.560465 381.029803,281.815116 359.472735,329.44186 L356.889234,329.263953 L358.050241,322.126744 Z" id="Path" fill="#498DBC" opacity="0.6"></path>
                    <path d="M425.963895,317.689535 C425.963895,317.689535 474.558818,300.380233 464.904683,270.115116 C455.250547,239.85 410.766214,265.751163 391.384726,287.790698 C372.003239,309.830233 364.399168,331.189535 364.399168,331.189535 L366.888534,360.973256 C366.888534,360.973256 381.31221,360.774419 382.912516,360.104651 C384.512823,359.434884 414.667615,339.624419 414.667615,339.624419 L425.963895,317.689535 Z" id="Path" fill="#498DBC"></path>
                    <path d="M416.048271,363.432558 C416.048271,363.432558 454.476543,352.967442 454.215055,330.781395 C453.953567,308.595349 406.875274,310.656977 374.869147,352.35 L361.271772,378.136047 C361.271772,378.136047 377.222538,384.289535 378.007002,383.755814 C378.791466,383.222093 397.785952,379.224419 397.785952,379.224419 L416.048271,363.432558 Z" id="Path" fill="#183D6D"></path>
                    <path d="M401.258512,382.395349 C401.258512,382.395349 421.006083,370.056977 445.805602,372.10814 C445.805602,372.10814 453.305077,372.463953 453.399212,369.115116 C453.503807,365.975581 430.806652,349.482558 385.412341,376.838372 L384.920744,384.216279 L393.131466,387.763953 L399.281663,386.14186 L401.258512,382.395349 Z" id="Path" fill="#002649"></path>
                    <path d="M372.013698,374.410465 C372.013698,374.410465 402.084814,350.131395 425.62919,341.748837 C407.577262,348.182675 390.246027,356.484654 373.91733,366.519767 L363.991247,375.006977 L368.331947,379.946512 L372.013698,374.410465 Z" id="Path" fill="#498DBC" opacity="0.6"></path>
                    <path d="M432.396499,284.305814 C432.396499,284.305814 399.553611,300.265116 375.193392,338.368605 L372.798162,335.312791 L374.806389,331.69186 C374.806389,331.69186 402.932035,290.930233 432.396499,284.305814 Z" id="Path" fill="#183D6D" opacity="0.5"></path>
                    <path d="M408.224551,398.898837 L437.176499,398.375581 C437.176499,398.375581 431.141357,389.459302 424.625077,389.124419 C418.108796,388.789535 415.441619,385.587209 412.805821,385.440698 C410.170022,385.294186 399.396718,383.044186 396.248403,388.161628 C393.100088,393.27907 408.224551,398.898837 408.224551,398.898837 Z" id="Path" fill="#498DBC"></path>
                    <path d="M349.944114,402.069767 C349.944114,402.069767 376.898293,402.697674 382.138512,401.494186 C387.378731,400.290698 396.457593,397.894186 408.224551,398.898837 C408.224551,398.898837 404.678775,393.289535 403.203982,390.474419 C401.72919,387.659302 400.766915,378.763953 391.635755,377.706977 C382.504595,376.65 350.906389,387.973256 350.906389,387.973256 L349.944114,402.069767 Z" id="Path" fill="#002649"></path>
                    <path d="M251.16442,363.034884 C247.656508,367.472073 245.780452,372.981315 245.850985,378.638372 C245.855111,381.216254 246.125,383.786835 246.656368,386.309302 C248.308972,393.268605 256.268665,402.645349 267.721838,402.844186 C279.175011,403.043023 295.293129,404.277907 295.293129,404.277907 C295.293129,404.277907 303.127309,400.793023 306.484814,401.337209 C309.842319,401.881395 337.235799,405.04186 341.492823,404.95814 C345.749847,404.874419 349.944114,402.069767 349.944114,402.069767 C349.944114,402.069767 378.027921,392.452326 380.412691,390.275581 C382.797462,388.098837 390.192341,376.116279 390.192341,376.116279 C390.192341,376.116279 393.026871,364.813953 383.414573,354.045349 C383.414573,354.045349 383.759737,339.446512 372.683107,331.744186 C361.606477,324.04186 348.960919,313.953488 348.960919,313.953488 C348.960919,313.953488 334.453567,300.547674 320.176324,295.524419 C314.438236,293.530082 308.069233,294.84394 303.587527,298.946512 C297.66323,304.293798 293.406811,311.237801 291.328972,318.945349 C291.328972,318.945349 285.408884,327.568605 280.869453,328.866279 C276.330022,330.163953 262.293348,343.517442 258.193217,352.067442 C256.243416,355.961038 253.887371,359.637313 251.16442,363.034884 Z" id="Path" fill="url(#linearGradient-3)"></path>
                    <path d="M279.582932,348.593023 C283.819037,348.226744 292.741007,346.353488 296.234486,337.081395 C297.203262,334.628909 297.335627,331.925006 296.611028,329.389535 C296.337138,328.132089 295.587477,327.029497 294.519125,326.312791 C292.866521,325.433721 293.473173,323.267442 294.226258,321.666279 C294.91758,320.200871 294.554839,318.454515 293.337199,317.386047 C292.950696,317.049911 292.530013,316.755276 292.082057,316.506977 C291.820569,317.29186 291.56954,318.087209 291.349891,318.924419 C291.349891,318.924419 285.429803,327.547674 280.890372,328.845349 L274.761094,340.116279 C273.577073,342.21113 273.73693,344.807115 275.169015,346.740698 C275.250942,346.846261 275.338219,346.947557 275.430503,347.044186 C276.511873,348.158292 278.036537,348.726985 279.582932,348.593023 Z" id="Path" fill="#498DBC" opacity="0.5"></path>
                    <path d="M384.910284,376.409302 C384.251335,373.583721 382.535974,368.759302 382.818381,364.09186 C383.100788,359.424419 375.360744,354.903488 373.519869,353.511628 C371.678993,352.119767 368.760788,337.186047 363.415974,332.822093 C358.07116,328.45814 349.8186,320.263953 348.898162,313.984884 C348.898162,313.984884 334.39081,300.57907 320.113567,295.555814 C314.860662,293.724338 309.038733,294.66894 304.633479,298.067442 C304.633479,298.067442 300.355536,320.044186 305.543457,342.638372 C305.166915,337.186047 305.689891,332.926744 308.064201,332.173256 C315.459081,329.912791 312.091116,348.362791 317.854311,359.047674 C321.483764,365.766279 325.678031,373.133721 330.050109,378.743023 C330.050109,378.680233 318.617856,353.093023 322.916718,344.312791 C322.916718,344.312791 333.585427,351.826744 340.289978,353.124419 C346.99453,354.422093 363.541488,362.030233 367.108184,368.644186 C370.67488,375.25814 378.247571,383.80814 374.701794,393.006977 C376.677548,392.311992 378.571498,391.403111 380.349934,390.296512 C381.063357,389.576038 381.71746,388.799094 382.305864,387.973256 C382.305864,387.973256 385.590153,379.234884 384.910284,376.409302 Z" id="Path" fill="#498DBC" opacity="0.5"></path>
                    <path d="M349.944114,402.069767 C349.944114,402.069767 352.538074,401.180233 356.219825,399.893023 C353.259781,391.793023 345.049059,390.610465 337.978425,386.288372 C330.90779,381.966279 323.690722,369.711628 317.969365,359.026744 C312.248009,348.34186 315.574136,329.89186 308.179256,332.152326 C301.736193,334.119767 308.900963,362.20814 310.877812,369.523256 C311.15735,370.564246 311.506794,371.585171 311.923764,372.57907 C313.806477,377.026744 319.412779,391.186047 315.176674,392.462791 C310.135186,393.927907 301.694354,386.466279 298.09628,386.52907 C295.575536,386.581395 291.600919,390.882558 289.425339,393.477907 C288.172586,394.985464 286.551036,396.142788 284.718556,396.837209 C281.578429,397.988984 278.329898,398.819959 275.022582,399.317442 C266.38302,400.677907 249.4386,392.347674 249.407221,392.326744 C252.91116,397.674419 259.396061,402.697674 267.763676,402.844186 C279.206389,403.043023 295.334967,404.277907 295.334967,404.277907 C295.334967,404.277907 303.169147,400.793023 306.526652,401.337209 C309.884158,401.881395 337.277637,405.04186 341.534661,404.95814 C345.791685,404.874419 349.944114,402.069767 349.944114,402.069767 Z" id="Path" fill="#002649" opacity="0.5"></path>
                    <path d="M16.9130416,184.562791 L55.8015317,184.562791 C61.1506935,184.562791 65.487046,188.901464 65.487046,194.253488 L65.487046,299.543023 C65.487046,305.866041 60.3639687,310.99186 54.0443326,310.99186 L16.9130416,310.99186 L16.9130416,184.562791 Z" id="Path" fill="#183D6D" transform="translate(41.200044, 247.777326) rotate(-180.000000) translate(-41.200044, -247.777326) "></path>
                    <path d="M65.487046,303.781395 L65.487046,311.002326 L26.5985558,311.002326 C22.2017219,311.000322 18.3578617,308.035313 17.2372867,303.781395 L65.487046,303.781395 Z" id="Path" fill="#5BA8D3"></path>
                    <path d="M97.1061707,104.243023 L93.340744,29.5325581 C93.340744,29.5325581 46.9841575,61.744186 79.9839387,111.589535 L96.2275711,111.589535 L97.1061707,104.243023 Z" id="Path" fill="url(#linearGradient-4)"></path>
                    <path d="M112.837287,105.530233 L116.477199,29.5325581 C116.477199,29.5325581 163.199869,69.7709302 131.434311,115.754651 L117.742801,115.754651 L112.837287,105.530233 Z" id="Path" fill="url(#linearGradient-5)"></path>
                    <path d="M79.9839387,111.589535 C66.940919,91.9046512 66.3028884,74.9616279 70.287965,61.6709302 C93.1733917,66.2337209 97.1061707,104.243023 97.1061707,104.243023 L95.4954048,111.568605 L79.9839387,111.589535 Z" id="Path" fill="#F15A24" opacity="0.5"></path>
                    <path d="M112.837287,105.373256 C112.962801,102.913953 115.044245,70.9848837 139.665952,64.8104651 C144.289059,79.294186 144.362276,97.0534884 131.434311,115.754651 L117.742801,115.754651 L112.837287,105.530233 L112.837287,105.373256 Z" id="Path" fill="#F15A24" opacity="0.5"></path>
                    <path d="M49.3375492,184.562791 L97.9115536,184.562791 L97.9115536,299.543023 C97.9115536,305.866041 92.7884763,310.99186 86.4688403,310.99186 L49.3375492,310.99186 L49.3375492,184.562791 Z" id="Path" fill="#244C77" transform="translate(73.624551, 247.777326) rotate(-180.000000) translate(-73.624551, -247.777326) "></path>
                    <path d="M186.179431,401.431395 L20.7726039,401.431395 C20.7726039,401.431395 27.7491028,392.243023 20.7726039,384.687209 C13.796105,377.131395 1.75719912,372.55814 4.92643326,351.345349 C4.92643326,351.345349 -8.06428884,329.462791 13.4823195,311.075581 L25.5212254,332.947674 C31.5998983,321.629049 39.1705472,311.178638 48.0301094,301.876744 C48.0301094,301.876744 60.3828009,278.738372 56.5859956,257.494186 C56.5859956,257.494186 56.5859956,232.765116 70.1833698,215.95814 C70.1833698,215.95814 90.5480525,185.35814 72.7250328,165.861628 C72.7250328,165.861628 63.9285777,157.782558 52.5172429,157.07093 C52.5172429,157.07093 62.0249453,151.838372 65.8322101,141.613953 C65.8322101,141.613953 67.4115974,104.640698 102.440525,103.803488 C104.143511,103.762519 105.845578,103.917016 107.513392,104.263953 C111.636269,105.122672 115.685924,106.301829 119.625514,107.790698 C130.06029,111.795873 137.578276,121.051892 139.362626,132.090698 C140.962932,141.697674 144.341357,155.218605 150.930853,158.065116 C150.930853,158.065116 114.573567,166.154651 125.263195,205.869767 L133.107834,237.265116 C133.107834,237.265116 140.492254,261.481395 146.192691,272.448837 C146.866389,273.725201 148.129855,274.583275 149.564133,274.738528 C150.998411,274.893782 152.416061,274.325925 153.347002,273.223256 L170.898074,252.669767 C170.898074,252.669767 166.8607,245.344186 172.09046,238.374419 L176.044158,242.016279 L184.223501,236.218605 L182.215274,229.656977 L192.674792,237.55814 C194.809117,239.391556 196.032529,242.069201 196.021838,244.883721 C196.02623,247.420092 195.025778,249.854826 193.239606,251.654651 C184.871991,260.110465 160.177068,285.833721 155.459825,299.605814 C155.459825,299.605814 150.711204,304.838372 142.625996,299.605814 C134.540788,294.373256 119.175755,278.204651 119.175755,278.204651 C119.175755,278.204651 113.151072,298.653488 116.717768,310.782558 C116.717768,310.782558 131.214661,289.140698 141.203501,316.255814 C151.192341,343.37093 145.240875,380.930233 139.540438,389.731395 C144.751822,391.490812 150.354669,391.737542 155.700394,390.443023 C164.716499,388.255814 179.610853,387.565116 186.179431,401.431395 Z" id="Path" fill="url(#linearGradient-6)"></path>
                    <path d="M155.689934,390.348837 C164.716499,388.255814 179.610853,387.575581 186.189891,401.44186 L114.29116,401.44186 C91.5521663,383.023256 94.1356674,282.62093 94.1356674,282.62093 C97.9324726,298.789535 105.306433,300.934884 105.306433,300.934884 C109.343807,267.875581 135.252035,243.94186 135.252035,243.931395 C137.866915,251.926744 142.406346,265.081395 146.192691,272.386047 C146.866389,273.66241 148.129855,274.520484 149.564133,274.675738 C150.998411,274.830991 152.416061,274.263134 153.347002,273.160465 L170.898074,252.606977 C170.898074,252.606977 166.8607,245.281395 172.09046,238.311628 L176.044158,241.953488 L184.223501,236.155814 L182.215274,229.594186 L192.674792,237.495349 C194.807961,239.329636 196.031114,242.006716 196.021838,244.82093 C196.02623,247.357301 195.025778,249.792035 193.239606,251.59186 C184.871991,260.047674 160.177068,285.77093 155.459825,299.543023 C155.459825,299.543023 150.711204,304.775581 142.625996,299.543023 C134.540788,294.310465 119.175755,278.14186 119.175755,278.14186 C119.175755,278.14186 113.151072,298.590698 116.717768,310.719767 C116.717768,310.719767 131.214661,289.077907 141.203501,316.193023 C151.192341,343.30814 145.240875,380.867442 139.540438,389.668605 C144.751581,391.415626 150.350474,391.651457 155.689934,390.348837 Z" id="Path" fill="#F15A24" opacity="0.5"></path>
                    <path d="M195.655755,274.186047 L179.03558,218.72093 C178.536802,217.049443 179.466876,215.286011 181.127484,214.754651 L185.844726,213.247674 C187.159057,212.82648 187.897288,211.432846 187.50779,210.10814 L187.28814,209.365116 C187.101359,208.719976 186.665097,208.176028 186.076064,207.853851 C185.48703,207.531673 184.793886,207.457883 184.150284,207.648837 L179.213392,209.103488 C177.67184,209.558012 176.052181,208.684703 175.583939,207.146512 L174.307877,202.866279 C173.856759,201.339451 174.706702,199.731596 176.221969,199.245349 L185.489103,196.294186 C186.992428,195.812562 187.840478,194.222198 187.403195,192.704651 C187.182813,191.962097 186.676554,191.337594 185.995852,190.968601 C185.31515,190.599608 184.515798,190.516371 183.773742,190.737209 L165.793829,196.095349 C164.993039,196.336821 164.321735,196.888165 163.928966,197.626966 C163.536197,198.365768 163.454468,199.230883 163.701926,200.030233 L167.51965,212.588372 L169.329147,218.543023 L187.037112,276.593023 L195.655755,274.186047 Z" id="Path" fill="url(#linearGradient-7)"></path>
                    <rect id="Rectangle" fill="#FD8D32" transform="translate(104.119278, 141.933140) rotate(-180.000000) translate(-104.119278, -141.933140) " x="63.0290591" y="126.805814" width="82.1804376" height="30.2546512" rx="6.00875"></rect>
                    <rect id="Rectangle" fill="#FFE7B1" opacity="0.8" transform="translate(104.119278, 141.933140) rotate(-180.000000) translate(-104.119278, -141.933140) " x="67.223326" y="126.805814" width="73.7919037" height="30.2546512" rx="5.6848"></rect>
                    <rect id="Rectangle" fill="#F7F7F7" transform="translate(77.285383, 130.986628) rotate(-180.000000) translate(-77.285383, -130.986628) " x="72.9656018" y="130.112791" width="8.63956236" height="1.74767442"></rect>
                    <rect id="Rectangle" fill="#F7F7F7" transform="translate(77.285383, 134.199419) rotate(-180.000000) translate(-77.285383, -134.199419) " x="72.9656018" y="133.325581" width="8.63956236" height="1.74767442"></rect>
                    <rect id="Rectangle" fill="#F7F7F7" transform="translate(77.285383, 137.401744) rotate(-180.000000) translate(-77.285383, -137.401744) " x="72.9656018" y="136.527907" width="8.63956236" height="1.74767442"></rect>
                    <path d="M44.5366302,359.905814 C44.8608753,324.387209 61.1986433,287.50814 60.8848578,292.793023 C60.5710722,298.077907 65.769453,313.932558 70.8423195,320.902326 C75.915186,327.872093 80.977593,355.437209 81.9294092,362.762791 C82.8812254,370.088372 94.0415317,401.483721 94.0415317,401.483721 L20.8249015,401.483721 C20.8249015,401.483721 44.2228446,395.413953 44.5366302,359.905814 Z" id="Path" fill="#F15A24" opacity="0.5"></path>
                    <path d="M125.263195,205.817442 L127.051772,212.944186 C118.370372,197.246512 104.114048,197.246512 104.114048,197.246512 C87.8599562,196.744186 76.4381619,207.868605 70.9469147,214.775581 C74.4403939,208.977907 88.4875274,183.087209 72.7459519,165.861628 C72.7459519,165.861628 63.9494967,157.782558 52.5381619,157.07093 C90.0878337,156.348837 96.9806565,184.646512 96.9806565,184.646512 C96.9806565,184.646512 98.8842888,189.638372 104.114048,189.638372 C109.343807,189.638372 110.766302,186.153488 110.766302,186.153488 C121.225821,160.796512 150.930853,158.012791 150.930853,158.012791 C150.930853,158.012791 114.573567,166.102326 125.263195,205.817442 Z" id="Path" fill="#F15A24" opacity="0.5"></path>
                    <path d="M108.475667,173.113953 L101.154004,173.113953 C100.682701,173.099734 100.225885,173.27791 99.8885493,173.607531 C99.5512136,173.937152 99.362372,174.389867 99.3654267,174.861628 L99.3654267,176.169767 C99.3629173,177.270512 99.8403528,178.31761 100.672867,179.037209 C101.762775,179.978509 103.155399,180.494985 104.595186,180.49186 C106.109026,180.492536 107.5654,179.911922 108.663939,178.869767 L109.040481,178.524419 C109.80216,177.807717 110.23372,176.80778 110.232867,175.761628 L110.232867,174.861628 C110.235707,174.39543 110.051147,173.947655 109.720684,173.618982 C109.39022,173.29031 108.94159,173.108328 108.475667,173.113953 Z" id="Path" fill="#FD8D32"></path>
                    <path d="M180.573129,250.817442 C179.975842,251.268246 179.205861,251.422324 178.481225,251.236047 L176.661269,250.754651 C176.271023,250.656369 175.911492,250.462118 175.615317,250.189535 L169.517418,244.590698 C169.811655,242.306763 170.702798,240.140887 172.100919,238.311628 L180.405777,245.375581 C180.92046,245.772976 181.25248,246.361872 181.326214,247.00814 L181.514486,248.577907 C181.614741,249.437906 181.25757,250.287632 180.573129,250.817442 Z" id="Path" fill="#FD8D32"></path>
                    <path d="M26.0023632,366.404651 C19.1932166,345.317442 25.5212254,332.916279 25.5212254,332.916279 C27.793378,328.654494 30.2933386,324.518269 33.0102407,320.525581 C22.2683151,348.739535 26.0023632,366.404651 26.0023632,366.404651 Z" id="Path" fill="#F15A24" opacity="0.4"></path>
                    <path d="M9.68071535,244.25044 L57.5426107,244.25044 C62.4771369,244.25044 66.4773607,248.250664 66.4773607,253.18519 L66.4773607,254.341554 C66.4773607,259.27608 62.4771369,263.276304 57.5426107,263.276304 L9.68071535,263.276304 C4.74618918,263.276304 0.745965345,259.27608 0.745965345,254.341554 L0.745965345,253.18519 C0.745965345,248.250664 4.74618918,244.25044 9.68071535,244.25044 Z" id="Rectangle" fill="url(#linearGradient-8)" transform="translate(33.611663, 253.763372) rotate(-90.000000) translate(-33.611663, -253.763372) "></path>
                    <polygon id="Rectangle" fill="#FFFFFF" transform="translate(37.429387, 272.124419) rotate(-90.000000) translate(-37.429387, -272.124419) " points="31.4852013 271.470699 43.3735734 271.470699 43.3735734 272.778139 31.4852013 272.778139"></polygon>
                    <polygon id="Rectangle" fill="#FFFFFF" transform="translate(34.887724, 272.113953) rotate(-90.000000) translate(-34.887724, -272.113953) " points="28.9435382 271.460234 40.8319103 271.460234 40.8319103 272.767673 28.9435382 272.767673"></polygon>
                    <polygon id="Rectangle" fill="#FFFFFF" transform="translate(32.335602, 272.124419) rotate(-90.000000) translate(-32.335602, -272.124419) " points="26.3914157 271.470699 38.2797878 271.470699 38.2797878 272.778139 26.3914157 272.778139"></polygon>
                    <polygon id="Rectangle" fill="#FFFFFF" transform="translate(29.793939, 272.113953) rotate(-90.000000) translate(-29.793939, -272.113953) " points="23.8497527 271.460234 35.7381248 271.460234 35.7381248 272.767673 23.8497527 272.767673"></polygon>
                    <g id="Group" opacity="0.8" transform="translate(28.240700, 230.232558)" fill="#FFE7B1">
                        <polygon id="Rectangle" transform="translate(4.100131, 28.501744) rotate(-90.000000) translate(-4.100131, -28.501744) " points="3.1739685 25.3011315 5.02629408 25.3011315 5.02629408 31.7023569 3.1739685 31.7023569"></polygon>
                        <polygon id="Rectangle" transform="translate(4.936893, 25.100581) rotate(-90.000000) translate(-4.936893, -25.100581) " points="4.01072999 21.0632072 5.86305557 21.0632072 5.86305557 29.1379556 4.01072999 29.1379556"></polygon>
                        <polygon id="Rectangle" transform="translate(4.100131, 21.709884) rotate(-90.000000) translate(-4.100131, -21.709884) " points="3.1739685 18.509271 5.02629408 18.509271 5.02629408 24.9104964 3.1739685 24.9104964"></polygon>
                        <polygon id="Rectangle" transform="translate(5.376193, 18.319186) rotate(-90.000000) translate(-5.376193, -18.319186) " points="4.45002977 13.8425121 6.30235535 13.8425121 6.30235535 22.79586 4.45002977 22.79586"></polygon>
                        <polygon id="Rectangle" transform="translate(4.717243, 14.918023) rotate(-90.000000) translate(-4.717243, -14.918023) " points="3.7910801 11.100299 5.64340568 11.100299 5.64340568 18.7357475 3.7910801 18.7357475"></polygon>
                        <polygon id="Rectangle" transform="translate(5.731816, 11.516860) rotate(-90.000000) translate(-5.731816, -11.516860) " points="4.8056534 6.68456287 6.65797898 6.68456287 6.65797898 16.3491581 4.8056534 16.3491581"></polygon>
                        <polygon id="Rectangle" transform="translate(4.403457, 8.126163) rotate(-90.000000) translate(-4.403457, -8.126163) " points="3.47729454 4.62222406 5.32962012 4.62222406 5.32962012 11.6301015 3.47729454 11.6301015"></polygon>
                        <polygon id="Rectangle" transform="translate(4.936893, 4.725000) rotate(-90.000000) translate(-4.936893, -4.725000) " points="4.01072999 0.687625821 5.86305557 0.687625821 5.86305557 8.76237418 4.01072999 8.76237418"></polygon>
                        <polygon id="Rectangle" transform="translate(4.403457, 1.334302) rotate(-90.000000) translate(-4.403457, -1.334302) " points="3.47729454 -2.16963641 5.32962012 -2.16963641 5.32962012 4.83824106 3.47729454 4.83824106"></polygon>
                    </g>
                    <path d="M195.655755,269.215116 C183.368857,269.215116 173.408359,279.180945 173.408359,291.474419 C173.408359,303.767892 183.368857,313.733721 195.655755,313.733721 C207.942652,313.733721 217.903151,303.767892 217.903151,291.474419 C217.903151,279.180945 207.942652,269.215116 195.655755,269.215116 Z M195.655755,307.695349 C186.701974,307.695349 179.443501,300.432991 179.443501,291.474419 C179.443501,282.515846 186.701974,275.253488 195.655755,275.253488 C204.609535,275.253488 211.868009,282.515846 211.868009,291.474419 C211.856466,300.424816 204.601372,307.674426 195.655755,307.674419 L195.655755,307.695349 Z" id="Shape" fill="url(#linearGradient-9)" fill-rule="nonzero"></path>
                    <path d="M195.655755,272.74186 C188.077063,272.737628 181.242461,277.302667 178.340267,284.307404 C175.438072,291.312141 177.040123,299.376386 182.399069,304.7382 C187.758014,310.100013 195.817946,311.702922 202.818936,308.799174 C209.819926,305.895426 214.382524,299.057167 214.378293,291.474419 C214.378293,281.128712 205.995927,272.74186 195.655755,272.74186 Z M195.655755,305.131395 C188.117249,305.131395 182.006083,299.016959 182.006083,291.474419 C182.006083,283.931879 188.117249,277.817442 195.655755,277.817442 C203.19426,277.817442 209.305427,283.931879 209.305427,291.474419 C209.319394,295.10074 207.885793,298.582571 205.322949,301.146786 C202.760105,303.711002 199.280137,305.14537 195.655755,305.131395 Z" id="Shape" fill="url(#linearGradient-10)" fill-rule="nonzero"></path>
                    <ellipse id="Oval" fill="#F7F7F7" cx="135.659956" cy="132.969767" rx="1.52708972" ry="1.52790698"></ellipse>
                    <ellipse id="Oval" fill="#F7F7F7" cx="135.659956" cy="136.977907" rx="1.52708972" ry="1.52790698"></ellipse>
                    <path d="M244.512166,81.0209302 C244.512166,81.0209302 243.13151,57.7360465 231.856149,58.322093 C220.580788,58.9081395 221.83593,76.8244186 236.38512,85.3953488 L243.612648,87.122093 L244.512166,81.0209302 Z" id="Path" fill="url(#linearGradient-11)"></path>
                    <path d="M257.576105,81.9732558 C257.576105,81.9732558 258.946302,58.6883721 270.221663,59.2744186 C281.497024,59.8604651 279.541094,77.9546512 264.991904,86.4837209 L258.465164,88.0430233 L257.576105,81.9732558 Z" id="Path" fill="url(#linearGradient-12)"></path>
                    <ellipse id="Oval" fill="url(#linearGradient-13)" cx="249.417681" cy="101.176744" rx="21.4210941" ry="21.4325581"></ellipse>
                    <ellipse id="Oval" fill="#183D6D" cx="236.657068" cy="105.655814" rx="2.2487965" ry="2.25"></ellipse>
                    <ellipse id="Oval" fill="#183D6D" cx="261.006827" cy="105.655814" rx="2.2487965" ry="2.25"></ellipse>
                </g>
            </g>
        </g>
    </g>
</svg>