<svg xmlns="http://www.w3.org/2000/svg" width="466" height="363" viewBox="0 0 466 363"><defs><clipPath id="b10fa"><path d="M209.259 121.16c0 13.612 11.035 24.646 24.647 24.646 13.61 0 24.646-11.034 24.646-24.646 0-13.611-11.036-24.646-24.646-24.646-13.612 0-24.647 11.035-24.647 24.646z"/></clipPath></defs><g><g><path fill="#c8eefb" d="M454.324 167.184c1.34 21.856-19.969 38.333-28.682 58.587-10.697 24.863-1.726 54.156-11.194 79.466-6.861 18.343-23.691 32.995-43.468 37.844-14.823 3.634-30.413 1.992-45.716 2.142-43.448.422-86.728 15.446-129.584 8.626-21.162-3.369-41.169-11.965-62.428-14.723-25.493-3.307-55.197.692-73.416-16.633-25.452-24.205-6.556-68.71-25.658-97.749-6.151-9.35-16.06-16.667-19.382-27.242-3.882-12.358 2.407-25.527 10.216-36.06 7.809-10.534 17.471-20.235 21.701-32.488 3.84-11.127 1.495-23.222-3.229-34.034-7.236-16.566 12.907-54.55 52.865-51.703 18.317 1.305 26.561-19.91 46.654-25.792 23.006-6.733 51.888-1.32 68.84 4.314 17.223 5.724 38.515 8.734 48.388-5.893 13.94-20.65 55.496-23.882 74.155 9.653 6.816 12.25 12.885 21.78 27.391 20.845 78.617-5.066 65.551 65.847 75.418 83.784 6.64 12.07 16.294 23.451 17.129 37.056zM222.911 16.824c0-4.494 8.585-3.336 12.398-3.336 3.813 0 6.904 2.28 6.904 5.093 0 2.812-3.1 4.85-6.904 5.092-12.398.79-12.398-4.037-12.398-6.849zm-122.13 13.644c2.399-1.299 12.982 1.267 8.619 4.736-3.315 2.636-7.54 4.214-11.85 4.427-1.152.057-2.404-.013-3.292-.715-1.098-.869-1.217-2.644-.243-3.639.613-.626 1.507-.906 2.337-1.232 1.417-.554 2.806-1.348 3.609-2.592.233-.362.433-.775.82-.985zM89.018 36.95c1.452.952.356 2.391-.736 2.754-1.091.363-2.287.028-3.385-.315-.705-.22-1.57-.705-1.38-1.389.091-.329.413-.547.727-.71 1.446-.744 3.32-1.293 4.774-.34zm-54.833 89.66c.988 3.015 4.075 5.655 3.675 9.013-.188 1.585-1.203 2.953-2.186 4.243-1.895 2.488-3.819 5.007-6.319 6.948-1.059.821-2.289 1.556-3.652 1.601-1.242.042-2.432-.5-3.438-1.194-2.453-1.694-4.109-4.399-4.448-7.268-.465-3.937 1.437-7.77 3.649-11.124 1.37-2.077 2.968-4.147 5.261-5.26 3.843-1.868 6.383-.238 7.458 3.04zM436.158 227.59c3.525-1.437 8.656-2.02 10.681-.304 2.024 1.717.198 6.741-.399 10.058-.179.995-.418 2.022-1.071 2.817-.892 1.087-2.373 1.532-3.762 1.92-2.464.688-5.451 1.271-7.332-.395-1.396-1.237-1.593-3.252-1.591-5.069.002-1.659.095-3.319.278-4.969.088-.793.207-1.61.647-2.287.564-.866 1.566-1.37 2.549-1.77zM297.283 356.013c6.645-6.229 17.569-4.445 25.836-2.848 1.197.231 2.628.73 2.801 1.883.143.953-.691 1.766-1.497 2.345-6.607 4.746-15.497 5.05-23.767 5.161-.966.012-1.965.02-2.854-.34-1.769-.719-2.618-2.962-1.794-4.618.301-.605.775-1.115 1.275-1.583zm-156.99-12.767c5.8.782 11.688 2.376 17.836 6.708 7.457 5.253-.085 9.94-9.502 6.461-5.075-1.874-9.94-3.726-15.134-4.98-1.679-.405-11.828-2.518-11.83-4.714-.003-5.819 11.436-4.445 18.63-3.475z"/></g><g><path fill="#5084da" d="M376.65 205.731s16.712-1.526 32.55-8.014c.501-.205.804 3.2.804 3.2s2.332-4.552 3.142-4.934c8.572-4.043 16.434-9.676 20.648-17.475 0 0 2.076 47.822-59.398 58.443z"/></g><g><path fill="#5084da" d="M397.094 260.284s20.288 10.754 59.962 12.623c0 0-26.99 24.63-88.744 16.15l2.025-28.05z"/></g><g><path fill="#5193f4" d="M368.712 232.981s9.157-5.85 24.023-10.902c.593-.202 1.847 3.302 1.847 3.302s2.03-4.563 3.104-4.884c17.758-5.319 42.059-8.79 68.23-1.403 0 0-7.928 11.045-24.157 23.137-.692.516-5.276.108-5.276.108s1.925 2.32 1.292 2.76c-15.421 10.723-37.285 21.648-65.842 25.974z"/></g><g opacity=".4"><g opacity=".4"><path fill="#5084da" d="M465.917 219.095c-7.651 4.937-15.699 9.246-23.89 13.234-8.189 4-16.609 7.518-25.135 10.74-4.257 1.634-8.61 3-12.925 4.463l-6.551 1.962c-1.093.32-2.18.665-3.278.966l-3.317.832c-8.801 2.384-17.794 3.984-26.798 5.27l6.684-1.377 3.342-.675c1.109-.245 2.208-.538 3.312-.804l6.628-1.58 6.567-1.816c4.387-1.168 8.697-2.61 13.041-3.924 4.287-1.495 8.606-2.895 12.833-4.556 8.532-3.105 16.911-6.627 25.165-10.418a340.92 340.92 0 0 0 12.281-5.91 269.377 269.377 0 0 0 12.041-6.407z"/></g><g opacity=".4"><path fill="#5084da" d="M410.42 244.733c1.693-1.583 3.336-3.194 4.977-4.796 1.625-1.619 3.228-3.25 4.77-4.935 1.559-1.67 3.017-3.425 4.453-5.202a80.605 80.605 0 0 0 3.995-5.61 30.039 30.039 0 0 1-3.157 6.214 45.97 45.97 0 0 1-4.317 5.492c-3.176 3.398-6.72 6.473-10.721 8.837z"/></g><g opacity=".4"><path fill="#5084da" d="M385.849 252.106c1.836-1.199 3.516-2.563 5.122-3.99 1.594-1.44 3.1-2.968 4.438-4.634a38.21 38.21 0 0 0 3.68-5.246c1.124-1.835 2.022-3.796 2.946-5.793-.43 2.143-1.03 4.3-2.033 6.278-.923 2.021-2.173 3.881-3.574 5.604a27.314 27.314 0 0 1-4.805 4.587c-1.764 1.333-3.704 2.451-5.774 3.194z"/></g><g opacity=".4"><path fill="#5084da" d="M410.42 244.733c3.193.126 6.3.174 9.403-.047 1.552-.08 3.094-.264 4.635-.487 1.552-.2 3.068-.558 4.653-.844-1.383.8-2.878 1.454-4.438 1.854-1.553.441-3.155.69-4.764.796-1.608.092-3.224.075-4.82-.137-1.592-.199-3.176-.535-4.67-1.135z"/></g><g opacity=".4"><path fill="#5084da" d="M386.348 252.142c1.909.229 3.803.412 5.687.607 1.885.172 3.765.33 5.647.412 1.88.093 3.758.083 5.64.033 1.879-.1 3.752-.272 5.659-.566a20.863 20.863 0 0 1-5.563 1.594c-1.921.265-3.864.333-5.796.26-3.854-.217-7.695-.9-11.274-2.34z"/></g></g><g opacity=".23"><g opacity=".11"><g opacity=".11"><path fill="#605aca" d="M427.478 190.935c-1.637 4.486-4.523 8.439-7.797 11.919-3.295 3.494-7.182 6.386-11.304 8.832l-3.17 1.696c-1.053.575-2.182.99-3.272 1.483-2.177 1.007-4.47 1.709-6.742 2.442-1.125.406-2.305.62-3.46.913l-3.479.827c-2.355.369-4.712.714-7.065 1.01 2.308-.593 4.63-1.061 6.92-1.643l3.401-1c1.128-.347 2.28-.617 3.37-1.076 2.194-.865 4.449-1.56 6.552-2.621 1.059-.51 2.17-.912 3.193-1.49l3.09-1.686c4.049-2.368 7.855-5.152 11.247-8.4.844-.817 1.696-1.63 2.454-2.53.387-.441.792-.87 1.167-1.322l1.088-1.39c1.452-1.854 2.76-3.832 3.807-5.964z"/></g></g></g><g><path fill="#4ca1ff" d="M444.095 276.284c-2.78.534-5.593.862-8.405 1.193-2.818.274-5.643.478-8.473.622-5.662.277-11.342.148-17.005-.24-2.828-.24-5.652-.565-8.457-1.016-2.806-.426-5.606-.942-8.353-1.677-5.495-1.424-10.895-3.409-15.732-6.366 2.552 1.22 5.159 2.296 7.84 3.154a76.524 76.524 0 0 0 8.128 2.222c5.488 1.201 11.07 1.952 16.678 2.365 5.603.494 11.238.603 16.872.545 5.635-.069 11.273-.32 16.907-.802z"/></g><g><path fill="#4ca1ff" d="M417.504 286.195c-3.693.294-7.47-.506-10.86-2.146-1.68-.859-3.237-1.99-4.538-3.364-1.322-1.368-2.215-3.086-2.795-4.827 1.052 1.53 2.164 2.927 3.515 4.087 1.36 1.136 2.822 2.133 4.414 2.922 1.587.797 3.26 1.431 4.975 1.978 1.722.521 3.477 1.001 5.289 1.35z"/></g><g><path fill="#4ca1ff" d="M402.714 287.075c-3.67-.514-7.182-2.11-10.137-4.447-1.455-1.202-2.73-2.643-3.703-4.266-.994-1.622-1.494-3.492-1.684-5.318.697 1.721 1.48 3.326 2.547 4.751 1.08 1.403 2.294 2.693 3.677 3.808 1.377 1.121 2.873 2.103 4.429 3.01 1.568.88 3.178 1.73 4.87 2.462z"/></g><g><path fill="#52d2bc" d="M240.582 327.503c-6.174-7.113-15.564-11.328-24.985-11.204-6.955.09-13.785 2.403-20.725 1.977-7.291-.438-14.344-4.051-18.955-9.724-4.611-5.673-6.721-13.304-5.668-20.538.804-5.5 3.68-11.021 8.66-13.482 2.713-1.337 5.85-1.672 8.864-1.401 2.783.25 5.447 1.005 7.963 2.13 5.759 2.555 10.766 7.059 14.769 12.032 3.634 4.522 11.934 11.175 17.545 15.47a257.79 257.79 0 0 0 5.662 4.205c3.956 3.657 4.162 15.875 6.87 20.535z"/></g><g><path fill="none" stroke="#00ad9f" stroke-linecap="round" stroke-linejoin="round" stroke-miterlimit="50" d="M179.637 289.978c17.48 4.98 36.788 12.035 50.436 24.038"/></g><g><path fill="#5193f4" d="M292.288 287.519c-.258 2.904-.854 5.873-2.263 8.512-.974 1.818-2.293 3.41-3.784 4.823a29.483 29.483 0 0 1-2.425 2.054c-3.248 2.474-6.86 4.368-10.61 5.565-5.467 1.739-11.319 2.063-16.343 5.144-2.304 1.41-4.325 3.377-5.877 5.667a19.343 19.343 0 0 0-2.315 4.593l-.02-4.895c.534-5.42 1.083-10.941 3.103-16.121 1.303-3.357 3.186-6.486 5.246-9.454 3.291-4.752 7.073-9.18 11.438-12.861 3.53-2.976 7.571-5.504 11.885-6.146 4.308-.647 8.894.948 10.867 4.745 1.268 2.439 1.36 5.462 1.098 8.374z"/></g><g opacity=".31"><g opacity=".31"><path fill="none" stroke="#0b43a4" stroke-linecap="round" stroke-linejoin="round" stroke-miterlimit="50" d="M251.684 314.407c3.074-7.274 8.383-13.683 14.859-17.936 4.037-2.649 8.459-4.46 12.579-6.943 4.12-2.483 8.087-5.858 10.019-10.385"/></g></g><g><path fill="#52d2bc" d="M244.958 318.863c7.689-7.628 18.596-11.123 29.317-12.66 8.944-1.283 18.336-1.33 26.701 2.083 2.621 1.07 5.205 2.556 6.754 4.924 1.55 2.368 1.77 5.787-.123 7.891-1.596 1.775-4.19 2.207-6.577 2.293-7.853.282-15.537-2-23.229-3.613-13.221-2.772-27.618-3.44-39.637 2.727z"/></g><g><path fill="none" stroke="#00ad9f" stroke-linecap="round" stroke-linejoin="round" stroke-miterlimit="50" d="M254.545 314.852c15.914-6.712 38.9-4.55 48.926 2.388"/></g><g opacity=".5"><g opacity=".5"><path fill="#4ca1ff" d="M75.516 252.32c-6.186-3.196-9.755-9.936-16.274-12.602-1.476-.603-3.026-.939-4.623-.903-2.266.052-4.486.977-6.768.744-3.265-.332-5.318-3.182-8.213-4.376-3.315-1.367-6.695.746-10.122-.084-3.48-.842-6.327-3.385-9.082-5.527-5.722-4.449-12.223-6.945-19.522-6.926-.37.001-.206.98.213.978 8.048-.022 14.495 3.213 20.711 8.038 2.328 1.806 4.81 3.706 7.731 4.413 3.501.85 7.041-1.323 10.381.222 2.623 1.213 4.568 3.694 7.534 4.172 3.646.587 7.017-1.323 10.713-.17 7.071 2.207 10.78 9.604 17.214 12.928.452.234.436-.737.107-.907z"/></g></g><g><path fill="#7ee8d4" d="M136.318 285.146c-23.658 2.5-27.442 4.544-33.114 2.092-7.23-3.124-14.825-2.35-22.112-5.335-7.286-2.987-15.2-5.27-22.972-4.007-2.457.399-5.184 1.397-5.527 4.28-.137 1.157.235 2.326.913 3.272 1.712 2.388 4.51 3.19 7.185 3.927l8.944 2.467c2.909.803 2.723 5.087-.264 5.516l-.075.01c-2.505.34-5.042-.156-7.511-.702-5.371-1.19-10.752-2.636-16.254-2.644-6.656-.01-13.713 2.395-17.005 8.602-1.168 2.2-1.606 4.757-1.191 7.213 1.16 6.866 7.58 9.157 13.272 8.643 4.004-.361 7.789-1.908 11.57-3.276 9.235-3.341 17.137.343 26.954.599 27.094.705 57.187-30.657 57.187-30.657z"/></g><g><path fill="none" stroke="#00ad9f" stroke-linecap="round" stroke-linejoin="round" stroke-miterlimit="50" d="M34.688 306.797c16.845-1.924 33.814-3.873 49.976-8.996 4.74-1.502 10.847-1.918 24.228-11.793"/></g><g><path fill="#7ee8d4" d="M61.975 209.106a9.522 9.522 0 0 0 1.76 1.09c2.892 1.427 6.203 1.624 8.503 4.219 1.535 1.632 2.368 3.82 3.515 5.764.234.43.499.84.787 1.232 3.556 4.877 7.056 5.443 10.8 5.359 1.535-.037 3.125-.184 4.759-.183 2.5-.003 5.162.32 8.027 1.895 1.809.975 3.7 2.45 5.699 4.638.359.389 1.003.423 1.513.098.456-.3.687-.831.588-1.31-1.002-4.501-2.96-7.456-5.317-9.676-6.626-6.271-16.41-6.77-17.002-19.714-.125-2.772.464-4.74.02-6.715-.226-.995-.718-1.995-1.694-3.105-2.003-2.16-4.885-3.114-7.452-4.841-6.95-4.957-3.637-13.068-4.254-20.787-.414-6.3-6.08-10.401-10.711-13.97-5.791-4.261-5.778-11.948-9.687-17.661-3.9-5.718-13.61-8.021-18.777-.338-5.485 7.67-2.473 17.258-.895 25.037a18.051 18.051 0 0 0 2.076 5.482c2.89 5.049 7.853 8.646 12.14 12.923 2.644 2.625 4.843 5.6 6.383 8.959a26.387 26.387 0 0 1 1.982 6.276c.092.518.193 1.03.293 1.545 1.002 5.395 2.18 10.2 6.944 13.783z"/></g><g opacity=".5"><g opacity=".5"><path fill="#4ca1ff" d="M37.333 135.212c.278 7.088.819 14.452 6.133 19.718 2.48 2.458 5.46 4.373 7.802 6.975 1.649 1.832 2.473 3.769 3.114 6.129.353 1.3.65 2.656 1.434 3.78.93 1.334 2.302 1.988 3.639 2.838 1.788 1.136 3.118 2.635 4.157 4.476 1.591 2.82 2.45 5.985 3.876 8.886.623 1.266 1.339 2.49 2.248 3.575 1.422 1.697 3.578 2.763 4.536 4.812 1.629 3.484.944 7.684 2.519 11.289 3.675 8.406 12.39 12.597 20.23 16.29.463.218.442-.75.107-.907-7.625-3.591-16.2-7.614-19.837-15.764-1.489-3.336-1.051-6.937-2.135-10.34-1.038-3.26-4.221-4.594-6.033-7.336-3.064-4.637-3.6-10.862-7.917-14.686-1.427-1.263-3.448-1.874-4.691-3.331-1.481-1.735-1.522-4.273-2.329-6.33-1.04-2.65-3.027-4.71-5.145-6.546-3.102-2.69-6.537-5.051-8.459-8.796-2.292-4.464-2.444-9.682-2.637-14.593-.02-.51-.638-.806-.612-.14z"/></g></g><g opacity=".37"><g opacity=".37"><path fill="#5a4fd1" d="M92.098 226.587c2.501-.004 5.162.32 8.028 1.895.255-3.972 1.591-4.797 2.483-6.25-6.627-6.271-16.409-6.77-17.002-19.714-.125-2.773.464-4.74.021-6.715-1.977 4.15-5.524 5.003-5.246 9.24.242 4.37 5.833 8.418 6.835 13.933.824 4.554 2.504 5.715 4.881 7.61z"/></g></g><g><path fill="#5084da" d="M156.22 291.825c-4.47-1.765-10.438-2.49-13.304 1.368-2.4 3.23-1.157 7.807.5 11.473 1.399 3.096 3.177 6.242 6.127 7.925 2.016 1.15 4.378 1.495 6.682 1.768 6.426.765 12.899 1.14 19.37 1.121 7.5-.02 16.587 3.042 22.793 7.72-7.963-14.805-27.126-25.435-42.168-31.375z"/></g><g opacity=".31"><g opacity=".31"><path fill="none" stroke="#0b43a4" stroke-linecap="round" stroke-linejoin="round" stroke-miterlimit="50" d="M148.378 301.45c5.689.241 11.43.641 16.89 2.256 5.585 1.651 27.065 11.51 30.423 15.704"/></g></g><g><path fill="#7ee8d4" d="M374.611 181.736a9.07 9.07 0 0 0-.186 1.973c.01 3.084 1.25 6.005.005 9.08-.745 2.01-2.265 3.654-3.442 5.464-.27.382-.507.784-.72 1.198-2.665 5.122-1.66 8.361.005 11.532.686 1.301 1.487 2.6 2.182 4 1.067 2.141 1.922 4.56 1.793 7.684-.065 1.965-.525 4.213-1.547 6.856-.182.473.063 1.04.558 1.337.451.265 1.005.235 1.373-.054 3.43-2.773 5.128-5.708 6.028-8.672 2.551-8.346-1.186-16.939 9.652-22.956 2.322-1.287 4.258-1.62 5.762-2.839.756-.62 1.402-1.466 1.938-2.775.998-2.636.59-5.51.976-8.444 1.29-8.064 9.648-8.678 15.998-12.49 5.222-3.037 6.323-9.636 7.408-15.123 1.187-6.775 7.78-10.035 11.01-15.815 3.238-5.775 1.078-15.074-7.703-16.23-8.904-1.435-15.837 5.226-21.829 9.888a17.277 17.277 0 0 0-3.814 4.112c-3.095 4.626-4.064 10.408-5.903 15.901-1.125 3.382-2.737 6.532-4.959 9.28a25.292 25.292 0 0 1-4.533 4.37c-.406.3-.803.603-1.199.908-4.197 3.154-7.81 6.21-8.853 11.815z"/></g><g opacity=".5"><g opacity=".5"><path fill="#4ca1ff" d="M427.32 129.015c-6.134 3.354-12.092 6.98-14.247 14.023-.982 3.204-1.356 6.612-2.724 9.692-.87 1.96-2.184 3.396-3.787 4.788-1.098.955-2.228 1.917-2.804 3.296-.668 1.598-.448 3.404-.799 5.07-.388 1.84-1.328 3.463-2.448 4.954-1.914 2.547-4.34 4.677-6.129 7.324-1.959 2.904-1.833 7.005-4.466 9.354-2.446 2.184-5.474 3.374-7.648 5.923-5.722 6.71-5.552 16.134-5.38 24.435.011.512.626.806.613.139-.173-8.293-.352-17.838 5.73-24.313 2.224-2.37 5.4-3.48 7.61-5.82 2.164-2.292 2.024-5.753 3.662-8.396 2.91-4.695 8.293-7.99 9.184-13.791.397-2.578.365-4.63 2.42-6.554 1.072-1.007 2.252-1.863 3.17-3.027 1.863-2.368 2.605-5.367 3.283-8.243.954-4.045 1.972-7.896 4.938-10.982 2.866-2.982 6.588-5 10.18-6.963.327-.18.04-1.127-.358-.91z"/></g></g><g><path fill="#4a84d8" d="M348.77 305.18c6.813 3.842 9.59 13.067 15.24 15.382 7 2.945 9.533-4.921 20.982-2.183 9.607 2.298 11.842 13.42 28.308 11.108 5.029-.706 8.596-4.684 7.064-9.835-1.065-5.097-7.747-8.716-11.682-11.541-3.502-2.292-6.65-3.606-8.554-7.566a1.622 1.622 0 0 1-.056-.13c-1.246-3.198-.485-5.927-3.723-8.421-7.553-6.325-18.04 2.242-27.048 1.378-6.352-.608-5.74-7.207-13.268-9.623-7.455-2.393-5.415 4.556-20.91-2.652a1.111 1.111 0 1 0-1.321 1.72c10.365 12.38 4.945 16.709 14.969 22.363z"/></g><g><path fill="#00ad9f" d="M348.77 305.18c6.813 3.842 9.59 13.067 15.24 15.382 7 2.945 9.533-4.921 20.982-2.183 9.607 2.298 11.842 13.42 28.308 11.108 5.029-.706 8.596-4.684 7.064-9.835-1.065-5.097-7.747-8.716-11.682-11.541-3.502-2.292-6.65-3.606-8.554-7.566a1.622 1.622 0 0 1-.056-.13c-1.246-3.198-.485-5.927-3.723-8.421-7.553-6.325-18.04 2.242-27.048 1.378-6.352-.608-5.74-7.207-13.268-9.623-7.455-2.393-5.415 4.556-20.91-2.652a1.111 1.111 0 1 0-1.321 1.72c10.365 12.38 4.945 16.709 14.969 22.363z"/></g><g opacity=".5"><g opacity=".5"><path fill="#4ca1ff" d="M340.797 289.419c6.027 3.647 9.157 10.918 15.804 13.685 3.588 1.493 6.81-.06 10.434.568 3.28.568 5.057 3.635 7.964 4.92 3.095 1.37 6.479-.371 9.682.62 3.442 1.065 6.098 3.863 8.725 6.18 5.22 4.602 11.38 7.39 18.368 7.83.45.03.322-.95-.052-.975-7.861-.495-13.967-4.011-19.737-9.14-2.027-1.8-4.14-3.647-6.701-4.64-3.54-1.37-7.447.717-10.761-1.075-2.38-1.287-4.047-3.738-6.723-4.512-3.472-1.005-7.03.747-10.542-.478-6.981-2.432-10.206-10.17-16.354-13.89-.428-.26-.423.716-.107.907z"/></g></g><g><path fill="#5084da" d="M105.46 286.526s-29.695-6.496-52.532-4.052c-.722.077.157-4.423.157-4.423s-4.704 4.995-5.892 5.185c-12.559 2.007-24.796 6.331-33.141 14.81 0 0 15.192-62.415 98.395-53.135z"/></g><g><path fill="#5193f4" d="M122.722 289.874s-13.304-5.972-29.912-18.939c-.663-.518 2.348-4.503 2.348-4.503s-6.616 1.078-7.766.111c-19.035-16.017-40.812-40.735-51.778-75.542 0 0 18.23.77 43.742 10.088 1.087.396 4.003 5.841 4.003 5.841s1.187-3.868 2.145-3.481c23.382 9.417 51.73 25.915 77.598 54.782z"/></g><g opacity=".4"><g opacity=".4"><path fill="#5084da" d="M35.614 191.85c11.171 4.954 21.928 10.814 32.43 17.072 10.516 6.247 20.66 13.109 30.55 20.307 4.965 3.575 9.7 7.456 14.518 11.222l7.021 5.908c1.164.99 2.35 1.957 3.496 2.969l3.375 3.109c9.15 8.124 17.562 17.039 25.631 26.197l-6.463-6.488-3.216-3.253c-1.092-1.064-2.229-2.083-3.34-3.127l-6.65-6.276-6.87-6.032c-4.54-4.065-9.327-7.841-13.999-11.75-4.833-3.71-9.582-7.527-14.555-11.05-9.763-7.288-19.88-14.101-30.208-20.577a462.42 462.42 0 0 0-15.669-9.432 357.31 357.31 0 0 0-16.05-8.8z"/></g><g opacity=".4"><path fill="#5084da" d="M105.223 235.268c-3.023-.736-6.04-1.394-9.045-2.057-3.013-.631-6.023-1.232-9.049-1.721-3.022-.521-6.062-.867-9.113-1.171a109.496 109.496 0 0 0-9.237-.357 40.506 40.506 0 0 1 9.298-1.028c3.13.025 6.255.304 9.34.804 6.15 1.064 12.207 2.778 17.806 5.53z"/></g><g opacity=".4"><path fill="#5084da" d="M76.008 215.262c-2.153-.13-4.292-.206-6.424-.287-2.134-.06-4.261-.098-6.386-.06-2.126.02-4.243.159-6.361.327a75.85 75.85 0 0 0-6.347.897 28.063 28.063 0 0 1 6.217-1.85 42.704 42.704 0 0 1 6.47-.603c4.328-.032 8.672.389 12.83 1.576z"/></g><g opacity=".4"><path fill="#5084da" d="M131.576 257.418c-2.695-1.178-5.463-2.06-8.246-2.813-2.788-.729-5.611-1.294-8.466-1.57-2.847-.322-5.723-.432-8.597-.272-2.885.09-5.746.526-8.666.958 2.72-1.094 5.58-2.009 8.54-2.338 2.946-.451 5.955-.417 8.918-.112 2.966.323 5.893.99 8.684 2.017 2.795.999 5.477 2.354 7.833 4.13z"/></g><g opacity=".4"><path fill="#5084da" d="M105.223 235.268c-2.209-3.677-4.44-7.198-6.972-10.52-1.232-1.681-2.572-3.277-3.958-4.841-1.366-1.595-2.883-3.034-4.37-4.603 1.916.966 3.75 2.16 5.346 3.618 1.638 1.417 3.097 3.033 4.4 4.759 1.286 1.738 2.455 3.566 3.391 5.51.948 1.934 1.737 3.96 2.163 6.077z"/></g><g opacity=".4"><path fill="#5084da" d="M131.25 256.832c-1.148-2.312-2.337-4.57-3.503-6.828-1.195-2.244-2.401-4.47-3.694-6.641-1.28-2.179-2.672-4.278-4.113-6.354-1.494-2.035-3.065-4.012-4.798-5.936a28.032 28.032 0 0 1 5.882 5.072c1.71 1.96 3.216 4.091 4.556 6.313 2.592 4.485 4.653 9.297 5.67 14.374z"/></g></g><g opacity=".5"><g opacity=".5"><path fill="#4ca1ff" d="M26.834 284.389c3.785-5.171 8.983-9.188 14.502-12.45 5.554-3.272 11.646-5.546 17.87-7.16l4.723-1.001c1.57-.35 3.18-.461 4.77-.69 3.182-.483 6.399-.532 9.602-.628 1.602-.102 3.203.06 4.802.117l4.792.233c3.174.403 6.34.84 9.483 1.339-3.195-.1-6.362-.362-9.532-.47l-4.758.019c-1.584.026-3.168-.056-4.744.129-3.151.294-6.316.348-9.425.93-1.555.26-3.137.365-4.671.727l-4.615 1.017c-6.102 1.54-12.047 3.707-17.634 6.626-1.393.738-2.793 1.467-4.107 2.343-.664.424-1.347.825-1.998 1.27l-1.924 1.382c-2.563 1.849-4.988 3.91-7.135 6.267z"/></g></g><g opacity=".5"><g opacity=".5"><path fill="#4ca1ff" d="M78.192 263.256c-1.73 2.759-3.416 5.367-4.825 8.126-.722 1.368-1.307 2.786-1.864 4.228-.53 1.459-.897 2.955-1.271 4.559-.766-3.22.073-6.683 1.555-9.596.776-1.456 1.68-2.836 2.754-4.071 1.067-1.235 2.258-2.373 3.65-3.246z"/></g></g><g><path fill="#0056ec" d="M258.494 317.119h-49.178v-33.821h49.178z"/></g><g opacity=".5"><g opacity=".5"><path fill="#605aca" d="M258.494 295.556h-49.178v-12.258h49.178z"/></g></g><g><path fill="#0056ec" d="M283.815 316.587h-99.82a5.708 5.708 0 1 0 0 11.416h99.82a5.709 5.709 0 0 0 0-11.416z"/></g><g opacity=".5"><g opacity=".5"><path fill="#605aca" d="M289.525 322.299a5.71 5.71 0 0 1-5.71 5.703h-99.819a5.709 5.709 0 0 1-5.71-5.703c0-.48.054-.944.18-1.385a5.687 5.687 0 0 0 5.53 4.326h99.818a5.687 5.687 0 0 0 5.53-4.326c.125.44.181.906.181 1.385z"/></g></g><g><path fill="#fff" d="M80.034 288.015c-1.93 0-3.5-1.57-3.5-3.5V81.285c0-1.928 1.57-3.5 3.5-3.5h307.744c1.929 0 3.5 1.572 3.5 3.5v203.23c0 1.93-1.571 3.5-3.5 3.5z"/></g><g><path fill="#0056ec" d="M388.777 81.286v203.23c0 .55-.449 1-1 1H80.033c-.55 0-1-.45-1-1V81.285c0-.55.45-1 1-1h307.744c.551 0 1 .45 1 1zm-308.744-6a6 6 0 0 0-6 6v203.23a6 6 0 0 0 6 6h307.744a6 6 0 0 0 6-6V81.285a6 6 0 0 0-6-6z"/></g><g><path fill="#0056ec" d="M393.776 284.102v-19.868H74.034v19.868a6.768 6.768 0 0 0 6.77 6.769h306.202a6.768 6.768 0 0 0 6.77-6.77z"/></g><g><path fill="#c8eefb" d="M258.552 121.16c0 13.612-11.035 24.646-24.646 24.646-13.612 0-24.646-11.034-24.646-24.646 0-13.61 11.034-24.646 24.646-24.646 13.61 0 24.646 11.035 24.646 24.646z"/></g><g/><g clip-path="url(#b10fa)"><path fill="#5084da" d="M243.43 115.535a9.524 9.524 0 0 0-9.525-9.524 9.524 9.524 0 0 0-9.524 9.524c0 5.26 4.264 9.525 9.524 9.525 5.26 0 9.524-4.265 9.524-9.525zm4.848 23.239c0-6.325-5.128-11.452-11.452-11.452h-5.84c-6.326 0-11.454 5.127-11.454 11.452v16.642a3.175 3.175 0 0 0 3.174 3.174h22.398a3.175 3.175 0 0 0 3.174-3.174z"/></g><g><path fill="#c8eefb" d="M292.874 173.842H174.936c-5.385 0-9.751-4.366-9.751-9.752 0-5.386 4.366-9.752 9.751-9.752h117.938c5.386 0 9.752 4.366 9.752 9.752 0 5.386-4.366 9.752-9.752 9.752z"/></g><g><path fill="#5084da" d="M288.78 166.637H179.03a2.546 2.546 0 0 1 0-5.093h109.75a2.547 2.547 0 0 1 0 5.093z"/></g><g><path fill="#c8eefb" d="M292.969 208.92H175.03c-5.385 0-9.751-4.365-9.751-9.752 0-5.386 4.366-9.752 9.75-9.752H292.97c5.386 0 9.752 4.366 9.752 9.752a9.751 9.751 0 0 1-9.752 9.752z"/></g><g><path fill="#5084da" d="M175.502 199.34a2.547 2.547 0 1 1 5.095 0 2.547 2.547 0 0 1-5.095 0zm12.666 0a2.547 2.547 0 1 1-5.094 0 2.547 2.547 0 0 1 5.094 0zm7.573 0a2.547 2.547 0 1 1-5.094 0 2.547 2.547 0 0 1 5.094 0zm7.573 0a2.547 2.547 0 1 1-5.094 0 2.547 2.547 0 0 1 5.094 0zm7.572 0a2.547 2.547 0 1 1-5.094 0 2.547 2.547 0 0 1 5.094 0zm7.573 0a2.547 2.547 0 1 1-5.094 0 2.547 2.547 0 0 1 5.094 0zm7.573 0a2.547 2.547 0 1 1-5.094 0 2.547 2.547 0 0 1 5.094 0z"/></g><g><path fill="#5084da" d="M250.654 245.667h-33.498c-5.386 0-9.752-4.366-9.752-9.752a9.751 9.751 0 0 1 9.752-9.752h33.498a9.751 9.751 0 0 1 9.752 9.752c0 5.386-4.366 9.752-9.752 9.752z"/></g><g opacity=".09"><g opacity=".09"><path d="M288.03 290.33v-11.146a6.64 6.64 0 0 1 6.64-6.64h.58v-10.331c0-15.188 12.355-27.542 27.54-27.542 15.188 0 27.542 12.354 27.542 27.542v10.33h.58a6.64 6.64 0 0 1 6.64 6.64v11.148zm16.32-17.786h36.882v-10.331c0-10.168-8.273-18.44-18.441-18.44s-18.44 8.272-18.44 18.44z"/></g></g><g opacity=".09"><g opacity=".09"><path d="M370.566 185.862c-2.68-2.242-6.01-3.6-9.97-3.95-.012-.365-.01-.726.005-1.195 2.038-.327 3.781-2.11 4.795-4.514 2.75-2.648 4.617-5.926 3.715-10.06a.798.798 0 0 1 .1-.606c-1.183-2.115-3.364-3.133-5.783-5.324-8.13-7.367-17.793 2.869-14.133 7.084.287.33.686 1.204 1.024 2.322-.007.026-.017.044-.023.07-.173.792-.023 2.123.598 2.78.043.416.072.833.072 1.247.014.04.04.07.048.117.12.649.365 1.217.684 1.734.49 1.966 1.666 4.034 4.142 4.864.194.065.391.127.6.176.138.554.156.872.087 1.329a15.97 15.97 0 0 0-6.505 2.177c-15.543 7.513-30.907 31.72-29.215 37.058 1.694 5.338 5.992 11.586 8.877 15.76l.453-.08.7 2.414c.115.4.246.826.561 1.1.421.368 1.04.362 1.598.336.688-.032 1.437-.09 1.945-.554.294-.27.47-.648.566-1.035.266-1.045-.002-2.162-.515-3.116l.338-.06s-6.7-10.025-6.455-16.138c.088-2.233 5.32-7.495 9.572-11.418a57.826 57.826 0 0 0-.152 4.153l-2.038 48.724s1.76.348 4.58.799l2.736 29.097h11.014l.261-27.41c.144.01.288.02.432.032l.383.026c.542.039 1.085.074 1.632.106.184.01.37.02.553.032l.594.033 1.081 27.18h10.858l2.225-27.682.04-.007c.45-.073.891-.15 1.32-.238.19-.038.374-.081.561-.122a25.994 25.994 0 0 0 1.611-.41c.346-.101.68-.21 1.006-.324.151-.052.308-.102.454-.158a15.53 15.53 0 0 0 1.322-.56l-.223-52.703a55.89 55.89 0 0 0-.099-3.32l-.016-.24a49.095 49.095 0 0 0-.277-2.933l-.037-.283c-.012-.085-.02-.172-.033-.258 2.148.426 4.943.94 8.6 1.557 2.376.4 4.688.199 6.898-.427v-10.665c-9.095 1.039-19.279-4.17-23.167-6.517z"/></g></g><g opacity=".3"><g opacity=".3"><path fill="#94ebff" d="M239.161 198.358c0 9.355-7.584 16.94-16.939 16.94-9.356 0-16.939-7.585-16.939-16.94s7.583-16.939 16.94-16.939c9.354 0 16.938 7.584 16.938 16.94z"/></g></g><g opacity=".5"><g opacity=".5"><path fill="#94ebff" d="M231.415 198.358a9.192 9.192 0 0 1-9.193 9.192 9.192 9.192 0 1 1 0-18.384 9.192 9.192 0 0 1 9.193 9.192z"/></g></g><g><path fill="#f9714e" d="M315.921 234.67c15.186 0 27.541 12.356 27.541 27.543v26.485H288.38v-26.485c0-15.187 12.355-27.542 27.542-27.542zm18.44 44.926v-17.383c0-10.168-8.273-18.44-18.44-18.44-10.169 0-18.44 8.272-18.44 18.44v17.383z"/></g><g opacity=".4"><g opacity=".4"><path fill="#f9714e" d="M315.921 240.115c12.126 0 21.992 9.865 21.992 21.992v21.147H293.93v-21.147c0-12.127 9.866-21.992 21.992-21.992zm18.44 22.098c0-10.168-8.272-18.44-18.439-18.44-10.169 0-18.442 8.272-18.442 18.44v17.383h36.881z"/></g></g><g><path fill="#ffb255" d="M343.915 328.003h-55.988a6.766 6.766 0 0 1-6.767-6.767V279.31a6.766 6.766 0 0 1 6.767-6.766h55.988a6.767 6.767 0 0 1 6.767 6.766v41.926a6.767 6.767 0 0 1-6.767 6.767z"/></g><g><path fill="#f9714e" d="M326.028 296.432c0-5.582-4.525-10.107-10.107-10.107-5.582 0-10.107 4.525-10.107 10.107 0 3.902 2.216 7.282 5.454 8.967v10.927h9.305v-10.927c3.24-1.685 5.455-5.065 5.455-8.967z"/></g><g opacity=".4"><g opacity=".4"><path fill="#ffb255" d="M344.041 272.544H327.34c-3.645 11.33-9.319 22.052-16.545 31.44-6.717 8.729-17.293 19.805-29.256 19.573a6.636 6.636 0 0 0 6.262 4.446h56.24a6.64 6.64 0 0 0 6.641-6.641v-42.177a6.64 6.64 0 0 0-6.641-6.641z"/></g></g><g><path fill="#ffc2d3" d="M322.64 234.684l1.327 4.58c.116.402.246.827.562 1.102.42.367 1.04.36 1.597.336.689-.033 1.438-.09 1.946-.555.295-.27.469-.648.567-1.034.284-1.125-.042-2.334-.635-3.331-.592-.998-1.432-1.821-2.262-2.631z"/></g><g><path fill="#ffc2d3" d="M404.96 181.956a36.527 36.527 0 0 1 2.176-6.213c.473.601.42 1.45.343 2.211a5.002 5.002 0 0 1 2.436-2.574c.131-.062.282-.119.415-.064.15.062.211.237.251.394a7.109 7.109 0 0 1-.55 4.92 7.116 7.116 0 0 1-3.652 3.344z"/></g><g><path fill="#5084da" d="M359.984 324.308c3.891.948 7.147 2.094 8.934 3.695h-14.997l.287-3.48z"/></g><g><path fill="#5084da" d="M341.644 324.308c-3.89.948-7.147 2.094-8.934 3.695h14.997l-.287-3.48z"/></g><g><path fill="#2e2c84" d="M367.87 236.919l-7.07 88s-2.47.605-3.326.605c-.42 0-1.217-.141-1.943-.27-.819-.167-1.534-.334-1.534-.334l-2.647-66.521h-3.32l-.636 66.52s-1.767.528-3.605.528c-1.79 0-3.91-.527-3.91-.527l-8.488-90.25z"/></g><g opacity=".3"><g opacity=".15"><g opacity=".15"><path fill="#2e2c84" d="M354.315 236.084l-12.455-.768c-.151 16.208 2.286 74.127 2.535 90.111 1.602-.093 3-.507 3-.507l.636-66.521h3.32l2.647 66.521s.714.167 1.534.334c.242.043.488.086.729.126 0-18.117-1.634-81.846-1.946-89.296z"/></g></g></g><g><path fill="#001f64" d="M344.097 173.715c.015.042.039.07.048.118.535 2.91 3.297 4.401 6.366 5.248 2.495.69 3.074.99 5.078-.456 4.155-3 7.853-6.987 6.653-12.48a.806.806 0 0 1 .099-.608c-1.182-2.116-3.362-3.133-5.781-5.324-8.131-7.367-17.794 2.868-14.135 7.084.594.683 1.676 3.66 1.672 6.418z"/></g><g><path fill="#8fc2ff" d="M371.827 208.948c0-16.729-6.924-27.13-20.184-27.13-13.26 0-20.217 13.987-20.217 30.715l-2.038 48.724s30.912 6.13 42.662.393z"/></g><g opacity=".3"><g opacity=".3"><path fill="#8fc2ff" d="M371.827 208.948c0-4.68-.543-8.863-1.613-12.463-1.176 18.204-2.773 66.672-29.868 66.478 10.071 1.258 24.492 2.208 31.704-1.313z"/></g></g><g><path fill="#ffc2d3" d="M358.452 171.752c-.496-3.292-3.429-6.593-7.01-4.882-2.3 1.098-4.678 1.224-6.553.221a191.64 191.64 0 0 0-.204 2.528c-.396-.727-1.059-.839-1.258.07-.213.974.05 2.784 1.097 3.124-.002.169-.004.339 0 .483.05 2.46 1.054 6.376 5.047 7.311.215.869.14 1.153-.108 2.31.22.773 3.325 1.27 4.35.359-.088-1.066-.116-1.58-.082-2.559 2.362-.379 4.333-2.707 5.225-5.699 3.562-1.997 1.014-5.641-.504-3.266z"/></g><g opacity=".3"><g opacity=".3"><path fill="#ffc2d3" d="M358.452 171.752a7.322 7.322 0 0 0-1.619-3.587c.098 5.72-2.337 11.037-7.86 12.266.192.065.388.127.598.176.215.869.14 1.153-.108 2.31.22.773 3.325 1.27 4.35.359-.088-1.066-.116-1.58-.082-2.559 2.362-.379 4.333-2.707 5.225-5.699 3.562-1.997 1.014-5.641-.504-3.266z"/></g></g><g><path fill="#8fc2ff" d="M343.152 184.113c-15.542 7.513-30.906 31.72-29.214 37.058 1.693 5.338 5.992 11.586 8.876 15.76l5.646-.994s-6.7-10.026-6.455-16.14c.15-3.77 14.968-16.186 14.968-16.186z"/></g><g><path fill="#8fc2ff" d="M362.302 184.965c2.434 1.75 22.74 13.917 33.907 3.171 8.065-7.76 8.877-9.259 8.877-9.259l2.767 4.898s-12.62 22.272-27.888 19.695c-15.267-2.576-15.653-3.368-15.653-3.368z"/></g><g opacity=".09"><g opacity=".09"><path d="M111.282 280.272c-5.813 1.68-10.73 5.477-13.88 10.49h41.253c-3.149-5.014-8.067-8.81-13.88-10.49V179.206h-13.493v1.649H96.873v12.165h14.41v2.896h-14.41v12.165h14.41z"/></g></g><g><path fill="#ffb255" d="M105.706 193.02h17.283v-12.166h-17.283z"/></g><g><path fill="#ffb255" d="M105.706 208.081h17.283v-12.165h-17.283z"/></g><g opacity=".5"><g opacity=".5"><path fill="#ffc87c" d="M118.583 193.02h4.406v-12.166h-4.406z"/></g></g><g opacity=".5"><g opacity=".5"><path fill="#ffc87c" d="M118.583 208.081h4.406v-12.165h-4.406z"/></g></g><g><path fill="#ffb255" d="M120.115 284.944h13.493V179.205h-13.493z"/></g><g opacity=".5"><g opacity=".5"><path fill="#ffc87c" d="M126.651 288.585h.42a.822.822 0 0 0 .822-.822V183.668a.822.822 0 0 0-.823-.822h-.419a.822.822 0 0 0-.822.822v104.095c0 .454.368.822.822.822z"/></g></g><g><path fill="#ffb255" d="M126.86 279.312c13.425 0 24.347 10.922 24.347 24.346s-10.922 24.345-24.346 24.345-24.345-10.92-24.345-24.345c0-13.424 10.92-24.346 24.345-24.346zm0 36.138c6.503 0 11.793-5.29 11.793-11.792s-5.29-11.792-11.792-11.792c-6.501 0-11.791 5.29-11.791 11.792s5.29 11.792 11.79 11.792z"/></g><g opacity=".5"><g opacity=".5"><path fill="#ffc87c" d="M113.923 303.658c0-7.134 5.804-12.938 12.939-12.938 7.133 0 12.938 5.804 12.938 12.938s-5.805 12.938-12.938 12.938c-7.135 0-12.94-5.804-12.94-12.938zm1.147 0c0 6.502 5.29 11.792 11.79 11.792 6.503 0 11.793-5.29 11.793-11.792s-5.29-11.792-11.792-11.792c-6.501 0-11.791 5.29-11.791 11.792z"/></g></g><g opacity=".09"><g opacity=".09"><path d="M215.395 201.887c-4.27 3.784-19.663 19.904-22.485 11.13-2.233-6.944-6.918-16.501-9.662-19.707-1.806-2.07-4.121-3.427-6.66-4.084v-1.11c2.67-.013 6.845-.535 6.845-10.154 0-2.908-.277-4.824-.777-6.08.798-.801.744-2.381.18-3.31-.745-1.23-2.708-2.298-4.012-2.876-3.088-1.368-7.12-2.005-10.081-.087-1.038-1.423-2.708-2.698-3.724-3.255-1.261-.692-2.628-1.282-4.066-1.31-2.845-.056-5.318 2.127-6.633 4.65-1.066 2.047-1.568 4.433-1.128 6.698.44 2.265 1.89 4.372 3.98 5.35.614.289 1.296.48 1.968.388.892-.122 1.643-.722 2.266-1.37 1.52-1.581 1.779-3.467 2.895-5.177.17-.26.387-.436.62-.581a12.331 12.331 0 0 0-.523 3.426c-.025 3.318 1.14 6.544 2.675 9.486.407.78.866 1.575 1.59 2.076.695.482 2.492.954 3.226.482l-.308 2.357c-2.101.184-4.23.793-6.258 1.828a.04.04 0 0 1-.002-.007c-11.57 2.66-20.296 31.066-35.771 29.183v.038c-1.882-.524-3.947-.673-4.056 1.168-.213 3.609 2.03 4.07 4.056 3.773v.075c6.477 0 15.067-1.87 22.61-10.207-4.161 23.463-2.5 54.187-2.5 54.187 1.117.162 2.227.307 3.335.444l1.896 21.497h9.854l.023-20.511c1.989.08 3.965.122 5.923.109l.23 20.402h11.428l2.208-21.396a90.88 90.88 0 0 0 6.012-1.042c-.407-12.904-.46-29.771-1.318-44.382.605.569 1.294 1.01 2.117 1.214 1.342.332 7.128 7.004 11.29 1.932 4.221-5.144 13.041-15.764 16.274-21.236-.7-1.805-2.564-2.34-3.537-4.011z"/></g></g><g><path fill="#f9acc8" d="M177.89 185.603l-.65 4.98 5.236.575v-5.252z"/></g><g opacity=".1"><g opacity=".1"><path d="M137.534 222.02s-6.932-3.415-7.133 0c-.382 6.47 7.133 2.824 7.133 2.824z"/></g></g><g><path fill="#ffc2d3" d="M138.515 221.04s-6.932-3.416-7.133 0c-.382 6.469 7.133 2.823 7.133 2.823z"/></g><g><path fill="#ffc2d3" d="M173.16 177.962c0 4.526 4.674 10.155 9.2 10.155 2.663 0 6.96-.398 6.96-10.155 0-10.256-3.438-8.195-7.964-8.195a8.195 8.195 0 0 0-8.195 8.195z"/></g><g opacity=".3"><g opacity=".3"><path fill="#ffc2d3" d="M180.049 181.767c.014-3.807.503-8.327 1.907-12.012-.198.008-.398.012-.6.012a8.195 8.195 0 0 0-8.195 8.195c0 4.44 4.497 9.928 8.94 10.136-1.447-1.664-2.061-3.75-2.052-6.331z"/></g></g><g><path fill="#ffb255" d="M187.591 172.478c-.725.108-1.5-.238-2.18.036-1.089.44-1.162 2.1-2.167 2.711-1.253.761-3.142-.558-4.238.421-.645.578-.57 1.593-.503 2.461a18.473 18.473 0 0 1-.748 6.802c-.156.51.517 1.423.116 1.77-.669.579-2.597.072-3.32-.434-.725-.507-1.183-1.309-1.59-2.098-1.536-2.972-2.7-6.23-2.675-9.583.026-3.352 1.395-6.815 4.102-8.753 2.981-2.136 7.152-1.487 10.323-.068 1.305.584 3.267 1.664 4.014 2.906.732 1.221.617 3.568-1.134 3.829z"/></g><g opacity=".5"><g opacity=".5"><path fill="#ffc87c" d="M186.727 166.823c-1.068.956-2.144 2.679-2.95 3.24-1.112.779-2.444.936-3.71 1.324-5.828 1.79-6.231 10.728-3.686 15.5.603.089 1.182.059 1.49-.208.402-.347-.271-1.26-.115-1.77.67-2.193.925-4.514.748-6.802-.068-.868-.143-1.884.503-2.46 1.095-.98 2.985.34 4.238-.422 1.004-.611 1.078-2.271 2.167-2.711.68-.274 1.455.073 2.18-.036 1.75-.261 1.866-2.608 1.134-3.828-.407-.677-1.175-1.301-2-1.827z"/></g></g><g><path fill="#ffb255" d="M170.907 162.367c-1.261-.699-2.628-1.295-4.065-1.324-2.846-.056-5.32 2.15-6.634 4.7-1.066 2.065-1.568 4.476-1.128 6.764.44 2.288 1.89 4.417 3.98 5.406.614.29 1.296.484 1.968.391.892-.124 1.643-.729 2.267-1.384 1.519-1.597 1.778-3.502 2.894-5.23.903-1.397 2.884-.823 4.206-1.735 3.355-2.313-1.423-6.443-3.488-7.588z"/></g><g opacity=".5"><g opacity=".5"><path fill="#ffc87c" d="M172.422 168.533c-.61-.314-1.086-.884-1.691-1.188-.863-.94-5.29-1.432-6.213 4.73-.276 1.843-1.696 3.75-3.146 4.659a6.514 6.514 0 0 0 1.688 1.179c.614.29 1.296.484 1.968.39.892-.122 1.643-.728 2.267-1.383 1.519-1.596 1.778-3.502 2.894-5.23.903-1.396 2.883-.823 4.206-1.734.476-.328.773-.695.952-1.083-.871.3-1.806.238-2.925-.34z"/></g></g><g><path fill="#f9714e" d="M169.502 324.308c3.89.948 7.147 2.094 8.934 3.695h-14.997l.287-3.48z"/></g><g><path fill="#f9714e" d="M182.946 324.308c3.89.948 7.147 2.094 8.934 3.695h-14.997l.287-3.48z"/></g><g opacity=".1"><g opacity=".1"><path d="M221.83 198.532a2.095 2.095 0 0 0-.314-.14c-.559-.15-1.085.237-1.548.581-.819.61-2.365 1.863-3.042 2.625h.005a3.653 3.653 0 0 0-.582.647c-.522.758-.672 1.821-.18 2.6.38.605 1.076 1.057 1.792 1.052 1.043-.006 2.451-.559 3.15-1.375.697-.815.64-1.725.135-2.673-.34-.636-.833-.992-1.38-1.135a11.733 11.733 0 0 0 1.79-1.318c.13-.117.26-.243.316-.407.056-.165.012-.377-.142-.457z"/></g></g><g><path fill="#ffc2d3" d="M221.472 200.701c.506.947.563 1.857-.135 2.673-.698.814-2.106 1.368-3.15 1.375-.715.004-1.411-.447-1.793-1.053-.49-.778-.341-1.843.182-2.599 1.09-1.583 3.789-2.467 4.896-.396z"/></g><g><path fill="#ffc2d3" d="M219.708 199.808a11.684 11.684 0 0 0 2.175-1.56c.128-.117.259-.243.315-.407.056-.165.012-.377-.141-.457a1.88 1.88 0 0 0-.315-.14c-.558-.151-1.084.237-1.548.582-.819.609-2.364 1.862-3.042 2.625.542.16 2.062-.37 2.556-.643z"/></g><g><path fill="#f9714e" d="M200.61 213.581c5.563-3.7 9.967-7.667 15.005-12.14a.76.76 0 0 1 1.086.076c.924 1.098 2.432 2.734 2.273 3.423-.09.384-.362.693-.625.985L204.24 221.56c-.926 1.027-1.868 2.067-3.035 2.81-1.166.742-2.607 1.164-3.95.832-2.263-.559-3.53-2.89-4.762-4.869-6.077-9.76-5.076-13.287-4.334-16.293.517-2.092 1.169-4.154 1.547-6.278.119-.672-1.487-4.406-.571-4.452 2.744 3.206 6.859 12.972 9.663 19.708.296.71 1.169.99 1.81.563z"/></g><g><path fill="#4b48b5" d="M156.72 244.782l7.071 80.191s2.47.551 3.325.551c.421 0 1.217-.129 1.943-.246.82-.152 1.533-.305 1.533-.305l.071-60.617h5.847l.685 60.617s1.768.481 3.606.481c1.791 0 3.91-.48 3.91-.48l8.487-82.24z"/></g><g><path fill="#568edb" d="M174.91 250.792c.041 2.716-.147 5.168.8 7.635.738 1.928 2.42 3.184 4.822 3.136 3.501-.072 5.93-1.981 5.943-5.516.002-.455.226-5.248.455-5.258l-12.02.003z"/></g><g><path fill="#568edb" d="M158.306 250.796c.042 2.716-.078 5.167.592 7.638.524 1.93 1.701 3.196 3.374 3.158 2.438-.055 3.798-2.766 4.115-5.488.052-.45.132-5.247.292-5.255l-8.373-.053z"/></g><g><path fill="#5e9ce4" d="M170.66 264.348l.024-.002a.148.148 0 0 0 .12-.17c-.938-5.448-.294-15.877-.288-15.981a.148.148 0 0 0-.042-.113.158.158 0 0 0-.11-.044c-.096.005-9.437.44-13.357-.551-.075-.026-.157.028-.178.106a.147.147 0 0 0 .107.177c3.67.929 12.007.622 13.28.568-.079 1.354-.58 10.78.3 15.889a.147.147 0 0 0 .143.12z"/></g><g><path fill="#5e9ce4" d="M171.83 264.348h.013a.147.147 0 0 0 .133-.158c-.557-6.371-.622-11.397-.206-15.8 5.58-.052 12.346-.783 20.121-2.175a.146.146 0 0 0 .117-.17c-.013-.08-.08-.13-.17-.118-7.819 1.4-14.615 2.13-20.2 2.172a.144.144 0 0 0-.145.133c-.433 4.452-.372 9.53.191 15.982.006.077.07.134.146.134z"/></g><g opacity=".16"><g opacity=".16"><path fill="#4e84d9" d="M169.06 325.278c.818-.152 1.532-.305 1.532-.305l.071-60.617h.491c-.116-.187-.28-.246-.49-.152-1.148.514-1.687 1.311-2.4 2.248a4.645 4.645 0 0 0-.914 2.634c-.468 18.683.62 32.907 1.71 56.192z"/></g></g><g><path fill="#5e9ce4" d="M183.98 323.13l.122-1.201c.01-.08.084-.148.16-.131.08.008.14.08.131.16l-.122 1.2a.146.146 0 0 1-.146.133l-.014-.001a.145.145 0 0 1-.13-.16zm.361-3.531l.238-2.33c.007-.08.08-.153.16-.13.08.009.14.08.13.16l-.237 2.329a.147.147 0 0 1-.146.132l-.014-.001a.147.147 0 0 1-.13-.16zm.476-4.66l.238-2.328c.008-.08.088-.15.16-.13.08.007.14.08.13.16l-.237 2.329a.147.147 0 0 1-.146.13h-.015a.145.145 0 0 1-.13-.16zm.476-4.657l.237-2.33c.008-.08.086-.154.16-.13.08.008.14.08.13.16l-.237 2.33a.146.146 0 0 1-.145.132l-.015-.001a.145.145 0 0 1-.13-.161zm.476-4.66l.238-2.33c.007-.078.083-.148.16-.13.08.009.14.08.131.16l-.238 2.33a.145.145 0 0 1-.145.132l-.015-.001a.145.145 0 0 1-.13-.16zm.476-4.657l.238-2.33c.006-.08.08-.154.16-.13.08.009.14.08.13.16l-.238 2.329a.145.145 0 0 1-.145.132l-.015-.001a.146.146 0 0 1-.13-.16zm.475-4.66l.24-2.327c.007-.08.086-.152.16-.131.08.008.14.08.13.16l-.239 2.329a.146.146 0 0 1-.146.13h-.014a.146.146 0 0 1-.13-.16zm.477-4.657l.238-2.33c.008-.08.085-.156.16-.13.08.008.14.08.13.16l-.238 2.329a.145.145 0 0 1-.145.132l-.015-.001a.145.145 0 0 1-.13-.16zm.476-4.66l.238-2.328c.006-.08.082-.152.16-.131.08.008.14.08.13.16l-.238 2.33a.146.146 0 0 1-.145.133c-.005 0-.01 0-.015-.002a.146.146 0 0 1-.13-.161zm.475-4.657l.24-2.33a.146.146 0 0 1 .144-.132c.005 0 .011 0 .016.002.08.008.14.08.13.16l-.239 2.33a.145.145 0 0 1-.145.13h-.016a.145.145 0 0 1-.13-.16zm.477-4.658l.238-2.33c.008-.08.085-.153.16-.13.08.009.14.08.13.16l-.237 2.329a.147.147 0 0 1-.146.132c-.004 0-.01 0-.014-.002a.145.145 0 0 1-.13-.16zm.476-4.66l.238-2.328c.006-.08.083-.15.16-.13.08.008.14.08.13.16l-.238 2.328a.146.146 0 0 1-.145.132l-.015-.001a.145.145 0 0 1-.13-.16zm.475-4.656l.24-2.33c.006-.081.08-.155.16-.131.08.008.14.08.13.16l-.239 2.33a.147.147 0 0 1-.146.132l-.014-.001a.147.147 0 0 1-.13-.16zm.477-4.66l.238-2.33c.008-.08.088-.15.16-.13.08.008.14.08.13.16l-.238 2.33a.144.144 0 0 1-.145.132l-.015-.001a.146.146 0 0 1-.13-.161zm.475-4.658l.238-2.33c.01-.08.086-.155.16-.13.081.009.14.08.131.16l-.238 2.33a.145.145 0 0 1-.145.13l-.015-.001a.144.144 0 0 1-.13-.16zm.476-4.66l.24-2.328c.006-.08.081-.151.16-.13.08.008.14.08.13.16l-.239 2.328a.145.145 0 0 1-.146.132l-.015-.001a.145.145 0 0 1-.13-.16zm.477-4.657l.238-2.33c.006-.08.08-.156.16-.13.08.009.14.08.13.16l-.238 2.329a.146.146 0 0 1-.145.132l-.015-.001a.146.146 0 0 1-.13-.16z"/></g><g><path fill="#f9714e" d="M171.21 190.65c-11.57 2.66-20.298 31.065-35.773 29.183v5.053c7.244 0 17.133-2.312 25.243-13.425 11.726-16.07 10.53-20.812 10.53-20.812z"/></g><g opacity=".3"><g opacity=".3"><path fill="#f9714e" d="M171.21 190.65c-11.57 2.66-20.298 31.065-35.773 29.183v5.053c7.244 0 17.133-2.312 25.243-13.425 11.726-16.07 10.53-20.812 10.53-20.812z"/></g></g><g><path fill="#f9714e" d="M189.136 193.31c7.104 8.142 6.512 49.424 7.32 75.06-12.803 2.688-26.531 2.575-40.906.498 0 0-2.237-41.308 4.964-64.705 4.889-15.885 21.125-19.445 28.622-10.853z"/></g><g opacity=".3"><g opacity=".3"><path fill="#f9714e" d="M165.348 247.754c-2.657-8.742-3.854-17.71-3.829-26.84.021-7.665.211-15.99 2.224-23.556-1.32 1.94-2.429 4.204-3.229 6.804-7.2 23.398-4.965 64.705-4.965 64.705 7.268 1.05 14.37 1.596 21.272 1.534-5.218-6.611-8.96-14.381-11.473-22.647z"/></g></g><g><path fill="#00ad9f" d="M52.309 180.417c1.044-.056 8.164-5.329 10.905-7.106.772-.5 1.555-1.024 2.094-1.769.539-.745.79-1.766.398-2.597-.487-1.032-1.294-2.062-3.332-2.058-3.547.008-4.777 1.173-6.502 2.957-5.705 5.898-3.563 10.573-3.563 10.573z"/></g><g><path fill="#00ad9f" d="M84.227 201.686c3.1 1.393 6.412 2.781 9.782 2.35 1.308-.167 2.735-.76 3.171-2.005.372-1.064-.14-2.282-.985-3.03-.843-.747-1.954-1.108-3.049-1.375-4.127-1.007-9.919-.45-14.005.71 0 0 3.236 2.518 5.086 3.35z"/></g><g><path fill="#00ad9f" d="M104.643 155.9c-1.382-.873-2.91-2.04-2.91-3.676.003-1.64 1.713-2.89 3.353-2.898 1.64-.008 3.16.886 4.394 1.968 5.216 4.58 4.566 9.8 4.566 9.8s-7.863-4.22-9.403-5.194z"/></g><g><path fill="#00ad9f" d="M108.755 141.933c-1.213-.52-2.465-1.15-3.177-2.263-.346-.54-.543-1.226-.329-1.833.357-1.015.992-1.926 3.55-1.462 8.096 1.47 9.86 7.014 9.86 7.014s-7.755-.532-9.904-1.456z"/></g><g><path fill="#00ad9f" d="M132.476 154.198c3.248-.28 6.601-1.897 8.648-4.435.773-.957 1.481-2.014 1.738-3.217.258-1.203-.016-2.583-.948-3.386-1.138-.98-2.94-.823-4.193.004-1.253.827-2.057 2.175-2.709 3.527-.868 1.8-2.536 7.507-2.536 7.507z"/></g><g><path fill="none" stroke="#086356" stroke-linecap="round" stroke-linejoin="round" stroke-miterlimit="50" d="M74.488 272.615l-23.59-20.796c-4.192-3.694-8.47-7.497-11.124-12.413-5.706-10.567-2.417-24.298 5.29-33.51 7.705-9.212 18.991-14.65 30.33-18.609 11.34-3.958 23.141-6.736 33.95-11.97 6.778-3.284 13.593-8.175 15.453-15.473 1.118-4.39.178-9.26-2.495-12.919-2.672-3.659-7.025-6.035-11.547-6.305"/></g><g><path fill="none" stroke="#086356" stroke-linecap="round" stroke-linejoin="round" stroke-miterlimit="50" d="M137.97 146.66c-2.148 6.598-10.518 10.612-14.337 16.327"/></g><g><path fill="none" stroke="#086356" stroke-linecap="round" stroke-linejoin="round" stroke-miterlimit="50" d="M107.92 154.249c1.649 1.74 3.623 3.178 5.06 5.096 3.039 4.05 3.293 10.634-1.202 14.718"/></g><g><path fill="none" stroke="#086356" stroke-linecap="round" stroke-linejoin="round" stroke-miterlimit="50" d="M65.576 191.185c6.937 5.346 16.057 8.909 24.81 9.249"/></g><g><path fill="none" stroke="#086356" stroke-linecap="round" stroke-linejoin="round" stroke-miterlimit="50" d="M49.693 200.922c-3.195-9.42.286-20.703 8.232-26.686"/></g><g><path fill="#00ad9f" d="M324.622 71.536c-.375-1.166-.356-2.598.502-3.469.682-.69 1.824-1 2.711-.609 6.878 3.034 6.134 13.796 6.134 13.796s-6.524-.946-9.347-9.718z"/></g><g><path fill="#00ad9f" d="M324.455 91.695c-4.449 8.065 11.364 7.45 17.066 2.7 0 0-13.236-9.642-17.066-2.7z"/></g><g><path fill="#00ad9f" d="M344.448 72.147c-1.073-1.476-1.455-3.675-.286-5.076.87-1.042 2.387-1.364 3.72-1.107 1.331.257 3.327 1.493 4.176 2.554 5.204 6.494 2.76 12.849 2.76 12.849s-8.61-6.803-10.37-9.22z"/></g><g><path fill="#00ad9f" d="M407.246 92.118c-.384-1.256-.294-2.789.68-3.669.614-.555 1.488-.756 2.312-.694.825.063 1.613.364 2.366.71 1.613.738 2.868 2.03 3.642 3.63 1.955 4.041.628 9.042.628 9.042s-8.67-5.889-9.628-9.019z"/></g><g><path fill="#00ad9f" d="M387.492 106.918c-2.796-2.463-7.078-3.192-10.485-1.693-.867.382-1.689.92-2.243 1.69-1.249 1.732-.81 4.265.485 5.962 1.296 1.699 3.262 2.73 5.203 3.615 3.52 1.601 8.98 1.922 12.726 2.88 0 0-.016-7.458-5.686-12.453z"/></g><g><path fill="none" stroke="#086356" stroke-linecap="round" stroke-linejoin="round" stroke-miterlimit="50" d="M329.55 73.266c2.327 7.638 8.91 13.402 16.242 16.52 7.33 3.118 15.405 3.94 23.35 4.457 7.946.515 15.986.772 23.67 2.864 7.489 2.04 14.946 6.286 18.16 13.37 3.912 8.623.448 18.935-5.043 26.642-5.492 7.707-12.887 13.918-18.2 21.751-2.44 3.596-4.477 7.807-3.984 12.128.658 5.762 5.497 10.005 9.994 13.65"/></g><g><path fill="none" stroke="#086356" stroke-linecap="round" stroke-linejoin="round" stroke-miterlimit="50" d="M347.865 70.464c5.266 5.843 9.475 14.981 10.5 22.79"/></g><g><path fill="none" stroke="#086356" stroke-linecap="round" stroke-linejoin="round" stroke-miterlimit="50" d="M330.16 93.033c3.011.8 6.062 1.608 9.177 1.616 3.114.008 6.722-1.722 8.962-3.894"/></g><g><path fill="none" stroke="#086356" stroke-linecap="round" stroke-linejoin="round" stroke-miterlimit="50" d="M412.397 92.593c2.821 2.732 4.535 6.582 4.683 10.512.146 3.93-2.028 8.694-4.637 11.63"/></g><g><path fill="none" stroke="#086356" stroke-linecap="round" stroke-linejoin="round" stroke-miterlimit="50" d="M382.885 110.43c5.633 5.204 10.538 9.41 16.802 13.829 2.859 2.017 8.535 4.602 11.054 3.936"/></g></g></svg>